<svg xmlns="http://www.w3.org/2000/svg" xmlns:xlink="http://www.w3.org/1999/xlink" viewBox="0 0 402.22 342.87"><defs><style>.cls-1{fill:none;}.cls-10,.cls-12,.cls-2,.cls-8{fill:#fff;}.cls-2{stroke:#328aea;}.cls-10,.cls-12,.cls-2{stroke-miterlimit:10;}.cls-3{fill:#007fcd;}.cls-4{fill:#007dcb;}.cls-5{fill:url(#Gradiente_sem_nome_2);}.cls-6{fill:#f2cf00;}.cls-7{fill:#512918;}.cls-9{fill:#4a018e;opacity:0.74;}.cls-10,.cls-12{stroke-width:2px;}.cls-10{stroke:url(#Gradiente_sem_nome_3);}.cls-11{fill:url(#Gradiente_sem_nome_2-2);}.cls-12{stroke:url(#Gradiente_sem_nome_3-2);}.cls-13{fill:url(#Gradiente_sem_nome_2-3);}.cls-14{clip-path:url(#clip-path);}.cls-15{fill:#213a7e;}.cls-16{fill:#e5bca9;}.cls-17{fill:url(#Gradiente_sem_nome_2-4);}.cls-18{clip-path:url(#clip-path-2);}.cls-19{fill:url(#Gradiente_sem_nome_3-3);}.cls-20{fill:url(#Gradiente_sem_nome_3-4);}</style><linearGradient id="Gradiente_sem_nome_2" x1="277.89" y1="240.13" x2="451.11" y2="240.13" gradientUnits="userSpaceOnUse"><stop offset="0" stop-color="#2196d3"/><stop offset="0.68" stop-color="#342f99"/><stop offset="1" stop-color="#3c0480"/></linearGradient><linearGradient id="Gradiente_sem_nome_3" x1="185.65" y1="139.23" x2="229.77" y2="139.23" gradientUnits="userSpaceOnUse"><stop offset="0" stop-color="#2196d3"/><stop offset="0.09" stop-color="#2581c7"/><stop offset="0.3" stop-color="#2d54ae"/><stop offset="0.5" stop-color="#34319a"/><stop offset="0.69" stop-color="#38188c"/><stop offset="0.86" stop-color="#3b0983"/><stop offset="1" stop-color="#3c0480"/></linearGradient><linearGradient id="Gradiente_sem_nome_2-2" x1="277.89" y1="352.13" x2="451.11" y2="352.13" xlink:href="#Gradiente_sem_nome_2"/><linearGradient id="Gradiente_sem_nome_3-2" x1="185.65" y1="258.23" x2="229.77" y2="258.23" xlink:href="#Gradiente_sem_nome_3"/><linearGradient id="Gradiente_sem_nome_2-3" x1="167.5" y1="84.58" x2="206.97" y2="84.58" xlink:href="#Gradiente_sem_nome_2"/><clipPath id="clip-path" transform="translate(-48.89 -91.57)"><circle class="cls-1" cx="236.13" cy="176.14" r="19.73"/></clipPath><linearGradient id="Gradiente_sem_nome_2-4" x1="167.5" y1="200.58" x2="206.97" y2="200.58" xlink:href="#Gradiente_sem_nome_2"/><clipPath id="clip-path-2" transform="translate(-48.89 -91.57)"><circle class="cls-1" cx="236.13" cy="292.14" r="19.73"/></clipPath><linearGradient id="Gradiente_sem_nome_3-3" x1="242.7" y1="349.79" x2="270.5" y2="349.79" xlink:href="#Gradiente_sem_nome_3"/><linearGradient id="Gradiente_sem_nome_3-4" x1="242.7" y1="230.79" x2="270.5" y2="230.79" xlink:href="#Gradiente_sem_nome_3"/></defs><title>chat-talk</title><g id="Camada_2" data-name="Camada 2"><g id="OBJECTS"><rect class="cls-2" x="118.11" y="0.5" width="166" height="341.87" rx="27.1" ry="27.1"/><circle class="cls-3" cx="208.37" cy="12.36" r="2.42"/><circle class="cls-3" cx="182.17" cy="23.04" r="2.82"/><rect class="cls-3" x="193.86" y="21.63" width="29.02" height="3.02" rx="1.51" ry="1.51"/><path class="cls-4" d="M251.67,422.72a13,13,0,1,1,13-13A13,13,0,0,1,251.67,422.72Zm0-25.12a12.11,12.11,0,1,0,12.11,12.11A12.13,12.13,0,0,0,251.67,397.6Z" transform="translate(-48.89 -91.57)"/><path class="cls-4" d="M323.4,390.76H176.7V130.85H323.4Zm-145.8-.9H322.5V131.74H177.6Z" transform="translate(-48.89 -91.57)"/><path class="cls-5" d="M306.38,204.93H277.89l10.77,10.77c0,.28,0,.55,0,.83v48.79a10,10,0,0,0,10,10H451.11V214.93a10,10,0,0,0-10-10Z" transform="translate(-48.89 -91.57)"/><circle class="cls-6" cx="325.45" cy="164.19" r="10.36"/><path class="cls-7" d="M371.43,253.34c0,1.07-.86-.66-1.93-.66s-1.93,1.72-1.93.66a1.93,1.93,0,1,1,3.86,0Z" transform="translate(-48.89 -91.57)"/><path class="cls-7" d="M381.11,253.34c0,1.07-.86-.66-1.93-.66s-1.93,1.72-1.93.66a1.93,1.93,0,1,1,3.86,0Z" transform="translate(-48.89 -91.57)"/><path class="cls-7" d="M374.34,259.95a8.69,8.69,0,0,1-6.17-2.55.28.28,0,1,1,.4-.4,8.17,8.17,0,0,0,11.54,0,.28.28,0,1,1,.4.4A8.69,8.69,0,0,1,374.34,259.95Z" transform="translate(-48.89 -91.57)"/><rect class="cls-8" x="254.22" y="129.54" width="126" height="3.55"/><rect class="cls-8" x="254.22" y="143.04" width="126" height="3.55"/><rect class="cls-8" x="254.22" y="159.04" width="50" height="3.55"/><path class="cls-9" d="M222.11,152.6H60.5A11.64,11.64,0,0,0,48.89,164.2v27.18A11.64,11.64,0,0,0,60.5,203H199.77a11.64,11.64,0,0,0,11.61-11.61V164.2c0-.28,0-.56,0-.83Z" transform="translate(-48.89 -91.57)"/><rect class="cls-8" x="16.22" y="75.54" width="126" height="3.55"/><rect class="cls-8" x="16.22" y="89.04" width="76" height="3.55"/><circle class="cls-10" cx="207.71" cy="139.23" r="21.06"/><path class="cls-11" d="M306.38,323.93H277.89l10.77,10.77c0,.28,0,.55,0,.83v34.79a10,10,0,0,0,10,10H451.11V333.93a10,10,0,0,0-10-10Z" transform="translate(-48.89 -91.57)"/><rect class="cls-8" x="254.22" y="250.54" width="126" height="3.55"/><rect class="cls-8" x="254.22" y="264.04" width="45.99" height="3.55"/><circle class="cls-12" cx="207.71" cy="258.23" r="21.06"/><circle class="cls-13" cx="187.24" cy="84.58" r="19.73"/><g class="cls-14"><circle class="cls-15" cx="187.24" cy="81.64" r="9.78"/><path class="cls-6" d="M237.65,185.76h-3A10.23,10.23,0,0,0,224.37,196v7.16h23.51V196A10.23,10.23,0,0,0,237.65,185.76Z" transform="translate(-48.89 -91.57)"/><path class="cls-16" d="M241.78,167.81c-6.64,2.92-11.31,0-11.31,0,.71,2,.89,5.25-2.21,9.77l-.24,0a8.1,8.1,0,0,0,8.1,8.08h0a8.1,8.1,0,0,0,8.1-8.08l-.24,0C240.89,173.06,241.08,169.78,241.78,167.81Z" transform="translate(-48.89 -91.57)"/><path class="cls-16" d="M233,181.37v6.92a3.15,3.15,0,0,0,6.31,0v-6.92Z" transform="translate(-48.89 -91.57)"/><path class="cls-8" d="M233.46,180.18a2.67,2.67,0,0,0,5.33,0Z" transform="translate(-48.89 -91.57)"/><circle class="cls-16" cx="179.06" cy="85.5" r="2.37"/><circle class="cls-16" cx="195.42" cy="85.5" r="2.37"/></g><path class="cls-9" d="M222.11,268.6H60.5A11.64,11.64,0,0,0,48.89,280.2v27.18A11.64,11.64,0,0,0,60.5,319H199.77a11.64,11.64,0,0,0,11.61-11.61V280.2c0-.28,0-.56,0-.83Z" transform="translate(-48.89 -91.57)"/><rect class="cls-8" x="16.22" y="193.54" width="126" height="3.55"/><rect class="cls-8" x="16.22" y="207.04" width="76" height="3.55"/><circle class="cls-17" cx="187.24" cy="200.58" r="19.73"/><g class="cls-18"><circle class="cls-15" cx="187.24" cy="197.64" r="9.78"/><path class="cls-6" d="M237.65,301.76h-3A10.23,10.23,0,0,0,224.37,312v7.16h23.51V312A10.23,10.23,0,0,0,237.65,301.76Z" transform="translate(-48.89 -91.57)"/><path class="cls-16" d="M241.78,283.81c-6.64,2.92-11.31,0-11.31,0,.71,2,.89,5.25-2.21,9.77l-.24,0a8.1,8.1,0,0,0,8.1,8.08h0a8.1,8.1,0,0,0,8.1-8.08l-.24,0C240.89,289.06,241.08,285.78,241.78,283.81Z" transform="translate(-48.89 -91.57)"/><path class="cls-16" d="M233,297.37v6.92a3.15,3.15,0,0,0,6.31,0v-6.92Z" transform="translate(-48.89 -91.57)"/><path class="cls-8" d="M233.46,296.18a2.67,2.67,0,0,0,5.33,0Z" transform="translate(-48.89 -91.57)"/><circle class="cls-16" cx="179.06" cy="201.5" r="2.37"/><circle class="cls-16" cx="195.42" cy="201.5" r="2.37"/></g><path class="cls-19" d="M269.72,355.44l-1-1,1.83-1-.34-.5a29.48,29.48,0,0,1-3-5.1,6.22,6.22,0,0,1,.84-2.75l.16-.31-4.41-6a1.53,1.53,0,0,0-1.39-.61l-13.23,1.42a1.52,1.52,0,0,0-1,.5l-5.06,5.72a1.51,1.51,0,0,0-.1,1.9l4.37,6.07a1.52,1.52,0,0,0,1.06.62l2.11.24a.41.41,0,0,1,.29.16l3.76,5.23a.56.56,0,1,0,.9-.65l-3.76-5.23a1.52,1.52,0,0,0-1.06-.62l-2.11-.24a.41.41,0,0,1-.29-.16L243.89,347a.41.41,0,0,1,0-.51l5.06-5.72a.41.41,0,0,1,.26-.14l13.23-1.42a.41.41,0,0,1,.37.16l4,5.48a6.52,6.52,0,0,0-.79,3.13c.16,1,2,3.79,2.84,5.05l-2.1,1.19,1.65,1.53-.37,1.24.68.94-.83,1.68a10.73,10.73,0,0,1-2.61.72c-.2,0-1.62-.13-5-.53a.41.41,0,0,1-.35-.34l-.73-4.34a5.44,5.44,0,0,0,3.84-3.81h0a2.13,2.13,0,0,0,1.22-.54,2.14,2.14,0,1,0-2.33.36,4.32,4.32,0,0,1-2.91,2.88L258,347.35a2.15,2.15,0,1,0-1.09.22l1.12,6.63h-.33a4.26,4.26,0,0,1-3.49-2.14,2.15,2.15,0,1,0-1.24.4h.19a5.44,5.44,0,0,0,4.49,2.86h.57l.73,4.35a1.53,1.53,0,0,0,1.32,1.27c4,.49,4.86.54,5.09.54h.08a12.55,12.55,0,0,0,3.15-.88l.19-.08,1.31-2.66-.75-1Zm-8-6.31A1.19,1.19,0,0,1,262.9,348H263a1.19,1.19,0,0,1,1.12,1.18v.07a1.19,1.19,0,1,1-2.37-.13ZM257,346.62a1.19,1.19,0,1,1,1.19-1.19h0a1.19,1.19,0,0,1-1.19,1.19Zm-5.18,4.13a1.19,1.19,0,1,1,1.55.66,1.19,1.19,0,0,1-1.55-.66Z" transform="translate(-48.89 -91.57)"/><path class="cls-20" d="M269.72,236.44l-1-1,1.83-1-.34-.5a29.48,29.48,0,0,1-3-5.1,6.22,6.22,0,0,1,.84-2.75l.16-.31-4.41-6a1.53,1.53,0,0,0-1.39-.61l-13.23,1.42a1.52,1.52,0,0,0-1,.5l-5.06,5.72a1.51,1.51,0,0,0-.1,1.9l4.37,6.07a1.52,1.52,0,0,0,1.06.62l2.11.24a.41.41,0,0,1,.29.16l3.76,5.23a.56.56,0,1,0,.9-.65l-3.76-5.23a1.52,1.52,0,0,0-1.06-.62l-2.11-.24a.41.41,0,0,1-.29-.16L243.89,228a.41.41,0,0,1,0-.51l5.06-5.72a.41.41,0,0,1,.26-.14l13.23-1.42a.41.41,0,0,1,.37.16l4,5.48a6.52,6.52,0,0,0-.79,3.13c.16,1,2,3.79,2.84,5.05l-2.1,1.19,1.65,1.53-.37,1.24.68.94-.83,1.68a10.73,10.73,0,0,1-2.61.72c-.2,0-1.62-.13-5-.53a.41.41,0,0,1-.35-.34l-.73-4.34a5.44,5.44,0,0,0,3.84-3.81h0a2.13,2.13,0,0,0,1.22-.54,2.14,2.14,0,1,0-2.33.36,4.32,4.32,0,0,1-2.91,2.88L258,228.35a2.15,2.15,0,1,0-1.09.22l1.12,6.63h-.33a4.26,4.26,0,0,1-3.49-2.14,2.15,2.15,0,1,0-1.24.4h.19a5.44,5.44,0,0,0,4.49,2.86h.57l.73,4.35a1.53,1.53,0,0,0,1.32,1.27c4,.49,4.86.54,5.09.54h.08a12.55,12.55,0,0,0,3.15-.88l.19-.08,1.31-2.66-.75-1Zm-8-6.31A1.19,1.19,0,0,1,262.9,229H263a1.19,1.19,0,0,1,1.12,1.18v.07a1.19,1.19,0,1,1-2.37-.13ZM257,227.62a1.19,1.19,0,1,1,1.19-1.19h0a1.19,1.19,0,0,1-1.19,1.19Zm-5.18,4.13a1.19,1.19,0,1,1,1.55.66,1.19,1.19,0,0,1-1.55-.66Z" transform="translate(-48.89 -91.57)"/></g></g></svg>