<svg xmlns="http://www.w3.org/2000/svg" xmlns:xlink="http://www.w3.org/1999/xlink" viewBox="0 0 792.24 653.88"><defs><style>.cls-1,.cls-51{opacity:0.1;}.cls-2,.cls-51{fill:#3315e8;}.cls-3,.cls-58{fill:#fff;}.cls-4{fill:url(#Gradiente_sem_nome_3);}.cls-5{fill:url(#Gradiente_sem_nome_3-2);}.cls-6{fill:url(#Gradiente_sem_nome_3-3);}.cls-7{fill:url(#Gradiente_sem_nome_3-4);}.cls-8{fill:url(#Gradiente_sem_nome_3-5);}.cls-9{fill:url(#Gradiente_sem_nome_3-6);}.cls-10{fill:url(#Gradiente_sem_nome_3-7);}.cls-11{fill:#c2c0f5;}.cls-12{fill:url(#Gradiente_sem_nome_3-8);}.cls-13{fill:url(#Gradiente_sem_nome_3-9);}.cls-14{fill:url(#Gradiente_sem_nome_3-10);}.cls-15{fill:url(#Gradiente_sem_nome_3-11);}.cls-16{fill:url(#Gradiente_sem_nome_3-12);}.cls-17{fill:url(#Gradiente_sem_nome_3-13);}.cls-18{fill:url(#Gradiente_sem_nome_3-14);}.cls-19{fill:url(#Gradiente_sem_nome_3-15);}.cls-20{fill:url(#Gradiente_sem_nome_3-16);}.cls-21{fill:url(#Gradiente_sem_nome_3-17);}.cls-22{fill:url(#Gradiente_sem_nome_3-18);}.cls-23{fill:url(#Gradiente_sem_nome_3-19);}.cls-24{fill:url(#Gradiente_sem_nome_3-20);}.cls-25{fill:url(#Gradiente_sem_nome_3-21);}.cls-26{fill:url(#Gradiente_sem_nome_3-22);}.cls-27{fill:url(#Gradiente_sem_nome_3-23);}.cls-28{fill:url(#Gradiente_sem_nome_3-24);}.cls-29{fill:#ad97f0;}.cls-30{fill:url(#Gradiente_sem_nome_3-25);}.cls-31{fill:#9898f8;}.cls-32{fill:url(#Gradiente_sem_nome_11);}.cls-33{fill:url(#Gradiente_sem_nome_3-26);}.cls-34{fill:url(#Gradiente_sem_nome_3-27);}.cls-35{fill:url(#Gradiente_sem_nome_3-28);}.cls-36{fill:url(#Gradiente_sem_nome_3-29);}.cls-37{fill:url(#Gradiente_sem_nome_3-30);}.cls-38{fill:url(#Gradiente_sem_nome_3-31);}.cls-39{fill:url(#Gradiente_sem_nome_3-32);}.cls-40{fill:url(#Gradiente_sem_nome_3-33);}.cls-41{fill:url(#Gradiente_sem_nome_3-34);}.cls-42{fill:url(#Gradiente_sem_nome_3-35);}.cls-43{fill:url(#Gradiente_sem_nome_3-36);}.cls-44{fill:url(#Gradiente_sem_nome_3-37);}.cls-45{fill:url(#Gradiente_sem_nome_3-38);}.cls-46{fill:url(#Gradiente_sem_nome_3-39);}.cls-47{fill:url(#Gradiente_sem_nome_3-40);}.cls-48{fill:url(#Gradiente_sem_nome_3-41);}.cls-49{fill:url(#Gradiente_sem_nome_3-42);}.cls-50{fill:url(#Gradiente_sem_nome_11-2);}.cls-52{fill:#b8a7f3;}.cls-53,.cls-60{fill:#007ecc;}.cls-53,.cls-59{opacity:0.4;}.cls-54{fill:url(#Gradiente_sem_nome_3-43);}.cls-55{fill:#edb94e;}.cls-56{fill:#2f2661;}.cls-57,.cls-58{opacity:0.2;}.cls-61{fill:#a06637;}.cls-62{fill:#251d46;}.cls-63{fill:url(#Gradiente_sem_nome_3-44);}.cls-64{fill:#e8a287;}.cls-65{fill:url(#Gradiente_sem_nome_3-45);}.cls-66{fill:url(#Gradiente_sem_nome_3-46);}.cls-67{fill:#b2791c;}.cls-68{fill:#dfa133;}.cls-69{fill:#8d8af7;}.cls-70{fill:url(#Gradiente_sem_nome_3-47);}.cls-71{fill:url(#Gradiente_sem_nome_3-48);}</style><linearGradient id="Gradiente_sem_nome_3" x1="588.33" y1="83.66" x2="694.23" y2="83.66" gradientUnits="userSpaceOnUse"><stop offset="0" stop-color="#2196d3"/><stop offset="0.09" stop-color="#2581c7"/><stop offset="0.3" stop-color="#2d54ae"/><stop offset="0.5" stop-color="#34319a"/><stop offset="0.69" stop-color="#38188c"/><stop offset="0.86" stop-color="#3b0983"/><stop offset="1" stop-color="#3c0480"/></linearGradient><linearGradient id="Gradiente_sem_nome_3-2" x1="35.43" y1="138.47" x2="132.38" y2="138.47" xlink:href="#Gradiente_sem_nome_3"/><linearGradient id="Gradiente_sem_nome_3-3" x1="669.38" y1="239.31" x2="722.19" y2="239.31" xlink:href="#Gradiente_sem_nome_3"/><linearGradient id="Gradiente_sem_nome_3-4" x1="114.28" y1="84.8" x2="158.64" y2="84.8" xlink:href="#Gradiente_sem_nome_3"/><linearGradient id="Gradiente_sem_nome_3-5" x1="556.06" y1="56.8" x2="570.45" y2="56.8" xlink:href="#Gradiente_sem_nome_3"/><linearGradient id="Gradiente_sem_nome_3-6" x1="74.13" y1="229.31" x2="88.53" y2="229.31" xlink:href="#Gradiente_sem_nome_3"/><linearGradient id="Gradiente_sem_nome_3-7" x1="738.32" y1="424.03" x2="752.72" y2="424.03" xlink:href="#Gradiente_sem_nome_3"/><linearGradient id="Gradiente_sem_nome_3-8" x1="193.54" y1="38" x2="207.93" y2="38" xlink:href="#Gradiente_sem_nome_3"/><linearGradient id="Gradiente_sem_nome_3-9" x1="239.99" y1="147.81" x2="283.09" y2="147.81" xlink:href="#Gradiente_sem_nome_3"/><linearGradient id="Gradiente_sem_nome_3-10" x1="249.93" y1="179.84" x2="271.46" y2="179.84" xlink:href="#Gradiente_sem_nome_3"/><linearGradient id="Gradiente_sem_nome_3-11" x1="241.1" y1="168.8" x2="263.32" y2="168.8" xlink:href="#Gradiente_sem_nome_3"/><linearGradient id="Gradiente_sem_nome_3-12" x1="234.95" y1="155.69" x2="257.69" y2="155.69" xlink:href="#Gradiente_sem_nome_3"/><linearGradient id="Gradiente_sem_nome_3-13" x1="227.98" y1="140.48" x2="251.53" y2="140.48" xlink:href="#Gradiente_sem_nome_3"/><linearGradient id="Gradiente_sem_nome_3-14" x1="225.63" y1="125.5" x2="245.85" y2="125.5" xlink:href="#Gradiente_sem_nome_3"/><linearGradient id="Gradiente_sem_nome_3-15" x1="226.47" y1="113.23" x2="242.54" y2="113.23" xlink:href="#Gradiente_sem_nome_3"/><linearGradient id="Gradiente_sem_nome_3-16" x1="231.85" y1="102.5" x2="241.78" y2="102.5" xlink:href="#Gradiente_sem_nome_3"/><linearGradient id="Gradiente_sem_nome_3-17" x1="273.92" y1="174.72" x2="282.64" y2="174.72" xlink:href="#Gradiente_sem_nome_3"/><linearGradient id="Gradiente_sem_nome_3-18" x1="265.92" y1="164.35" x2="276.96" y2="164.35" xlink:href="#Gradiente_sem_nome_3"/><linearGradient id="Gradiente_sem_nome_3-19" x1="258.75" y1="154.02" x2="268.44" y2="154.02" xlink:href="#Gradiente_sem_nome_3"/><linearGradient id="Gradiente_sem_nome_3-20" x1="251.52" y1="139.65" x2="264.31" y2="139.65" xlink:href="#Gradiente_sem_nome_3"/><linearGradient id="Gradiente_sem_nome_3-21" x1="246.57" y1="127.82" x2="258.51" y2="127.82" xlink:href="#Gradiente_sem_nome_3"/><linearGradient id="Gradiente_sem_nome_3-22" x1="242.93" y1="114.47" x2="253.85" y2="114.47" xlink:href="#Gradiente_sem_nome_3"/><linearGradient id="Gradiente_sem_nome_3-23" x1="241.52" y1="104.35" x2="249.48" y2="104.35" xlink:href="#Gradiente_sem_nome_3"/><linearGradient id="Gradiente_sem_nome_3-24" x1="147.92" y1="228.62" x2="275.92" y2="228.62" xlink:href="#Gradiente_sem_nome_3"/><linearGradient id="Gradiente_sem_nome_3-25" x1="119.16" y1="320.87" x2="312.87" y2="320.87" xlink:href="#Gradiente_sem_nome_3"/><linearGradient id="Gradiente_sem_nome_11" x1="124.28" y1="450.58" x2="366.23" y2="450.58" gradientUnits="userSpaceOnUse"><stop offset="0.09" stop-color="#2581c7"/><stop offset="0.1" stop-color="#2196d3"/><stop offset="0.3" stop-color="#2d54ae"/><stop offset="0.5" stop-color="#34319a"/><stop offset="0.69" stop-color="#38188c"/><stop offset="0.86" stop-color="#3b0983"/><stop offset="1" stop-color="#3c0480"/></linearGradient><linearGradient id="Gradiente_sem_nome_3-26" x1="513.5" y1="163.22" x2="557.88" y2="163.22" xlink:href="#Gradiente_sem_nome_3"/><linearGradient id="Gradiente_sem_nome_3-27" x1="525.29" y1="195.34" x2="546.87" y2="195.34" xlink:href="#Gradiente_sem_nome_3"/><linearGradient id="Gradiente_sem_nome_3-28" x1="533.59" y1="184.42" x2="555.86" y2="184.42" xlink:href="#Gradiente_sem_nome_3"/><linearGradient id="Gradiente_sem_nome_3-29" x1="539.36" y1="171.35" x2="562.24" y2="171.35" xlink:href="#Gradiente_sem_nome_3"/><linearGradient id="Gradiente_sem_nome_3-30" x1="545.7" y1="156.21" x2="569.49" y2="156.21" xlink:href="#Gradiente_sem_nome_3"/><linearGradient id="Gradiente_sem_nome_3-31" x1="551.63" y1="141.31" x2="572.04" y2="141.31" xlink:href="#Gradiente_sem_nome_3"/><linearGradient id="Gradiente_sem_nome_3-32" x1="555.14" y1="129.05" x2="571.38" y2="129.05" xlink:href="#Gradiente_sem_nome_3"/><linearGradient id="Gradiente_sem_nome_3-33" x1="556.04" y1="118.28" x2="566.18" y2="118.28" xlink:href="#Gradiente_sem_nome_3"/><linearGradient id="Gradiente_sem_nome_3-34" x1="514.29" y1="189.89" x2="522.8" y2="189.89" xlink:href="#Gradiente_sem_nome_3"/><linearGradient id="Gradiente_sem_nome_3-35" x1="520.14" y1="179.63" x2="530.94" y2="179.63" xlink:href="#Gradiente_sem_nome_3"/><linearGradient id="Gradiente_sem_nome_3-36" x1="528.81" y1="169.42" x2="538.27" y2="169.42" xlink:href="#Gradiente_sem_nome_3"/><linearGradient id="Gradiente_sem_nome_3-37" x1="533.19" y1="155.14" x2="545.69" y2="155.14" xlink:href="#Gradiente_sem_nome_3"/><linearGradient id="Gradiente_sem_nome_3-38" x1="539.14" y1="143.39" x2="550.84" y2="143.39" xlink:href="#Gradiente_sem_nome_3"/><linearGradient id="Gradiente_sem_nome_3-39" x1="544" y1="130.11" x2="554.7" y2="130.11" xlink:href="#Gradiente_sem_nome_3"/><linearGradient id="Gradiente_sem_nome_3-40" x1="548.5" y1="120.03" x2="556.28" y2="120.03" xlink:href="#Gradiente_sem_nome_3"/><linearGradient id="Gradiente_sem_nome_3-41" x1="528.02" y1="228.7" x2="674.58" y2="228.7" xlink:href="#Gradiente_sem_nome_3"/><linearGradient id="Gradiente_sem_nome_3-42" x1="472.75" y1="331.32" x2="677.29" y2="331.32" xlink:href="#Gradiente_sem_nome_3"/><linearGradient id="Gradiente_sem_nome_11-2" x1="513.54" y1="458.31" x2="729.05" y2="458.31" xlink:href="#Gradiente_sem_nome_11"/><linearGradient id="Gradiente_sem_nome_3-43" x1="462.93" y1="106.8" x2="511.99" y2="106.8" xlink:href="#Gradiente_sem_nome_3"/><linearGradient id="Gradiente_sem_nome_3-44" x1="340.87" y1="88.84" x2="416.08" y2="88.84" xlink:href="#Gradiente_sem_nome_3"/><linearGradient id="Gradiente_sem_nome_3-45" x1="567.24" y1="412.31" x2="622.93" y2="412.31" xlink:href="#Gradiente_sem_nome_3"/><linearGradient id="Gradiente_sem_nome_3-46" x1="556.6" y1="416.85" x2="591.29" y2="416.85" xlink:href="#Gradiente_sem_nome_3"/><linearGradient id="Gradiente_sem_nome_3-47" x1="192.18" y1="483.78" x2="248.15" y2="483.78" xlink:href="#Gradiente_sem_nome_3"/><linearGradient id="Gradiente_sem_nome_3-48" x1="131.94" y1="458.48" x2="216.45" y2="458.48" xlink:href="#Gradiente_sem_nome_3"/></defs><title>img-principal-educacao</title><g id="Camada_2" data-name="Camada 2"><g id="OBJECTS"><g class="cls-1"><path class="cls-2" d="M609.42,567.35c-164.38-6.38-245.79.28-410.23,3.59-8.72.18-88.35,6.4-129.41-39.25-27-30-51-62.42-61.92-103.36S-2.59,353.2,9.18,313C19.7,277,51.3,248.37,105.88,278.15c20.34,11.1,49.7-1.28,62.61-23,14.28-24-2.76-80.22-1.59-109.14,2.16-53.11,50.35-91.88,97.34-92.12s86.48,35.68,95.56,87.84c4.8,27.59,1.06,56.38,5.68,84s40.08,55.46,64.93,56c20.55.47,37.45-18.41,48.17-38.26s18.29-42.46,33.2-58.47c21.83-23.44,57.14-27.44,84.1-12.28s59.44,36.64,63.36,70.41,5.25,63.14-11.92,91.11c-5.65,9.2-12.47,20.2-8.71,30.56,2.79,7.68,10.62,11.5,17.94,12.1,26.75,2.16,21.16-10.46,43.34-27.52,26.61-20.47,69.05-21.2,85.77,9.91,13.23,24.62,4.59,57-9.2,81.23C736.5,510.81,679.07,570,609.42,567.35Z"/><circle class="cls-3" cx="64.12" cy="357.27" r="3.93"/><path class="cls-3" d="M86,353.37l-5.49-1a16.89,16.89,0,0,0-1.31-3.18l3.18-4.64a1.18,1.18,0,0,0-.13-1.44l-3.92-3.92a1.18,1.18,0,0,0-1.44-.13l-4.65,3.18a17,17,0,0,0-3.28-1.34l-1-5.46a1.18,1.18,0,0,0-1.12-.93H61.26a1.18,1.18,0,0,0-1.12.93l-1,5.52A16.93,16.93,0,0,0,56,342.23l-4.59-3.14a1.18,1.18,0,0,0-1.45.13L46,343.14a1.18,1.18,0,0,0-.13,1.45L49,349.2a17,17,0,0,0-1.29,3.14l-5.49,1a1.18,1.18,0,0,0-.93,1.12V360a1.19,1.19,0,0,0,.93,1.12l5.48,1a17,17,0,0,0,1.32,3.2l-3.12,4.56a1.18,1.18,0,0,0,.13,1.44L50,375.31a1.18,1.18,0,0,0,1.44.13L56,372.32a17,17,0,0,0,3.11,1.3l1,5.52a1.18,1.18,0,0,0,1.12.93H66.8a1.19,1.19,0,0,0,1.12-.93l1-5.46a17.15,17.15,0,0,0,3.24-1.32l4.62,3.16a1.19,1.19,0,0,0,1.45-.13l3.92-3.92A1.18,1.18,0,0,0,82.3,370l-3.14-4.59a17.06,17.06,0,0,0,1.34-3.24l5.48-1a1.19,1.19,0,0,0,.93-1.12v-5.54A1.18,1.18,0,0,0,86,353.37ZM66,366.6a9.51,9.51,0,1,1,7.47-7.46A9.52,9.52,0,0,1,66,366.6Z"/><circle class="cls-3" cx="106.05" cy="450.12" r="3.11" transform="translate(-182.83 89.01) rotate(-25.4)"/><path class="cls-3" d="M116.26,464.43l-1.13-4.28a13.37,13.37,0,0,0,1.83-2l4.4.69a.94.94,0,0,0,1-.59l1.47-4.13a.94.94,0,0,0-.39-1.08l-3.85-2.24a13.45,13.45,0,0,0-.15-2.8l3.56-2.59a.94.94,0,0,0,.28-1.11l-1.88-4a.94.94,0,0,0-1-.48L116,441a13.41,13.41,0,0,0-2-1.8l.69-4.35a.94.94,0,0,0-.59-1L110,432.37a.94.94,0,0,0-1.08.39l-2.23,3.83a13.48,13.48,0,0,0-2.69.14l-2.6-3.58a.94.94,0,0,0-1.11-.28l-4,1.88a.94.94,0,0,0-.48,1L97,440.07a13.44,13.44,0,0,0-1.84,2l-4.32-.68a.94.94,0,0,0-1,.59l-1.47,4.14a.93.93,0,0,0,.39,1.08l3.78,2.2a13.5,13.5,0,0,0,.13,2.66l-3.59,2.61a.94.94,0,0,0-.28,1.11l1.88,4a.94.94,0,0,0,1,.48L96,459.14A13.59,13.59,0,0,0,98,461l-.69,4.38a.94.94,0,0,0,.59,1l4.13,1.47a.94.94,0,0,0,1.08-.39l2.22-3.81a13.5,13.5,0,0,0,2.78-.14l2.6,3.57a.94.94,0,0,0,1.12.28l4-1.88A.93.93,0,0,0,116.26,464.43ZM100,454.62a7.53,7.53,0,1,1,7.88,2.81A7.54,7.54,0,0,1,100,454.62Z"/><circle class="cls-3" cx="730.07" cy="374.97" r="2.66"/><path class="cls-3" d="M744.89,372.33l-3.72-.7a11.47,11.47,0,0,0-.89-2.16l2.15-3.15a.8.8,0,0,0-.09-1l-2.66-2.66a.8.8,0,0,0-1-.09l-3.15,2.16a11.51,11.51,0,0,0-2.22-.91l-.69-3.7a.8.8,0,0,0-.76-.63h-3.76a.8.8,0,0,0-.76.63l-.7,3.74a11.48,11.48,0,0,0-2.13.89l-3.11-2.13a.8.8,0,0,0-1,.09l-2.66,2.66a.8.8,0,0,0-.09,1l2.14,3.13a11.53,11.53,0,0,0-.88,2.13l-3.72.7a.8.8,0,0,0-.63.76v3.76a.8.8,0,0,0,.63.76l3.72.7a11.51,11.51,0,0,0,.9,2.17l-2.12,3.1a.8.8,0,0,0,.09,1l2.66,2.66a.8.8,0,0,0,1,.09l3.09-2.12a11.56,11.56,0,0,0,2.11.88l.7,3.74a.8.8,0,0,0,.76.63h3.76a.8.8,0,0,0,.76-.63l.69-3.7a11.64,11.64,0,0,0,2.2-.9l3.13,2.14a.8.8,0,0,0,1-.09l2.66-2.66a.8.8,0,0,0,.09-1l-2.13-3.12a11.57,11.57,0,0,0,.91-2.2l3.72-.7a.8.8,0,0,0,.63-.76v-3.76A.8.8,0,0,0,744.89,372.33Zm-13.57,9a6.45,6.45,0,1,1,5.07-5.06A6.46,6.46,0,0,1,731.33,381.3Z"/><circle class="cls-3" cx="687.1" cy="443.25" r="4.35" transform="translate(-122.89 554.99) rotate(-40.68)"/><path class="cls-3" d="M706.16,458.81l-3.1-5.36a18.72,18.72,0,0,0,1.72-3.4l6.2-.69a1.31,1.31,0,0,0,1.12-1.15l.46-6.12a1.31,1.31,0,0,0-.93-1.31l-6-1.61a18.8,18.8,0,0,0-1.24-3.72l3.85-4.81a1.31,1.31,0,0,0,0-1.61l-4-4.66a1.31,1.31,0,0,0-1.59-.27l-5.38,3.11a18.76,18.76,0,0,0-3.37-1.69l-.68-6.12a1.31,1.31,0,0,0-1.16-1.12l-6.12-.46a1.31,1.31,0,0,0-1.31.93l-1.6,6a18.85,18.85,0,0,0-3.57,1.18l-4.83-3.87a1.31,1.31,0,0,0-1.61,0l-4.65,4a1.31,1.31,0,0,0-.27,1.59l3.1,5.35a18.83,18.83,0,0,0-1.74,3.42l-6.09.67a1.31,1.31,0,0,0-1.12,1.16l-.46,6.13a1.31,1.31,0,0,0,.93,1.31l5.92,1.58a18.88,18.88,0,0,0,1.16,3.55l-3.89,4.85a1.31,1.31,0,0,0,0,1.61l4,4.66a1.31,1.31,0,0,0,1.59.27l5.33-3.08a19,19,0,0,0,3.45,1.77l.68,6.16a1.31,1.31,0,0,0,1.16,1.12l6.12.46a1.31,1.31,0,0,0,1.31-.93l1.59-6a18.9,18.9,0,0,0,3.69-1.22l4.82,3.86a1.31,1.31,0,0,0,1.61,0l4.66-4A1.3,1.3,0,0,0,706.16,458.81Zm-25.56-7.26a10.54,10.54,0,1,1,11.67.89A10.55,10.55,0,0,1,680.6,451.55Z"/><circle class="cls-3" cx="284.04" cy="131.42" r="8.32" transform="translate(17.74 295.84) rotate(-56.52)"/><path class="cls-3" d="M327.19,150.07l-8.49-8.23a35.74,35.74,0,0,0,1.39-7.14l11-4.49a2.5,2.5,0,0,0,1.45-2.7L330.23,116a2.5,2.5,0,0,0-2.39-1.92l-11.92.19a35.93,35.93,0,0,0-4.22-6.19l4.57-10.84a2.5,2.5,0,0,0-.89-2.94l-9.78-6.47a2.51,2.51,0,0,0-3.05.33l-8.27,8.53a35.86,35.86,0,0,0-7.08-1.35l-4.43-10.9A2.51,2.51,0,0,0,280.06,83l-11.49,2.34a2.51,2.51,0,0,0-1.92,2.39l.19,11.83a36,36,0,0,0-5.95,4L250,99a2.51,2.51,0,0,0-2.94.89l-6.47,9.78a2.51,2.51,0,0,0,.33,3.06l8.48,8.22a35.94,35.94,0,0,0-1.41,7.2l-10.84,4.41a2.5,2.5,0,0,0-1.45,2.71l2.34,11.5a2.5,2.5,0,0,0,2.39,1.92l11.7-.19a36.08,36.08,0,0,0,4,5.92l-4.61,10.94a2.51,2.51,0,0,0,.89,2.94l9.78,6.47a2.51,2.51,0,0,0,3.06-.33L273.4,166a36.33,36.33,0,0,0,7.26,1.45l4.46,11a2.51,2.51,0,0,0,2.71,1.45l11.49-2.34a2.5,2.5,0,0,0,1.92-2.39l-.19-11.78a36.08,36.08,0,0,0,6.16-4.16l10.88,4.59a2.51,2.51,0,0,0,2.95-.89l6.47-9.78A2.49,2.49,0,0,0,327.19,150.07Zm-50.76,0a20.14,20.14,0,1,1,21.91-4.45A20.16,20.16,0,0,1,276.43,150.06Z"/></g><path class="cls-4" d="M611.3,105a53.4,53.4,0,0,1-14.82-1.68c-7-1.69-8.74-6.15-8-8.38s3.84-6.18,6.61-7c6.42-1.94,9.92-2,17.69-.78-4.9-1.25-6.33-2.21-9.23-4.95-1.86-1.75-1.61-6,.25-7.42,6.42-4.76,12.46-2.49,21.35,1.1-4.78-2.27-4.87-2.68-6.78-4.4a5.87,5.87,0,0,1-2.15-5c.48-2.65,6.41-4.9,9.66-5.19,7.19-.63,12.73.77,19.35,3.13s12.22,7.3,13,13.19c.33-3.81,5.27-6.71,9.9-6.26s8.41,3.75,9.4,7.48-.53,7.72-3.34,10.77c4.26-1.11,7.64-2.79,12-1.89s9.25,4.23,7.79,9.8c-.42,1.59-3.18,6.57-10.48,7.43-11.89,1.41-14.94,1.48-28.15,1.12Z"/><path class="cls-5" d="M56.45,162.32a40.46,40.46,0,0,1-13.56-1.88c-6.45-1.89-8-6.87-7.31-9.36s3.51-6.91,6.05-7.84c5.88-2.16,9.08-2.28,16.19-.87-4.48-1.4-5.79-2.47-8.45-5.52-1.7-2-1.47-6.75.23-8.29,5.88-5.31,11.4-2.78,19.54,1.23-4.37-2.54-4.46-3-6.21-4.92a7.3,7.3,0,0,1-2-5.62c.44-3,5.87-5.48,8.85-5.79,6.58-.7,11.65.86,17.71,3.5s11.19,8.16,11.91,14.73c.31-4.26,4.83-7.5,9.06-7s7.7,4.19,8.6,8.36a15.1,15.1,0,0,1-3.06,12c3.9-1.24,7-3.12,11-2.11s8.47,4.72,7.13,10.95a11.61,11.61,0,0,1-9.59,8.3c-10.88,1.57-13.68,1.65-25.77,1.25Z"/><path class="cls-6" d="M715.27,230.72c-1.62,1.44-3.92.81-3.92-2V222a3.72,3.72,0,0,0-3.7-3.7h-4.72a7.87,7.87,0,0,1,.83,3.47c0,4.15-3.23,7.29-7.69,7.47h-.29c-4.46-.18-7.69-3.32-7.69-7.47a7.76,7.76,0,0,1,.83-3.47h-5a3.63,3.63,0,0,0-3.63,3.63v6.81c0,2.8-2.34,3.41-4,2-2.68-2.35-6.76-1.1-6.93,3.2.18,4.29,4.26,5.55,6.92,3.2,1.62-1.44,4-.81,4,2v6.67a3.63,3.63,0,0,0,3.63,3.63h6.76c2.8,0,3.41,2.35,2,4-2.35,2.68-1.1,6.79,3.2,7,4.29-.18,5.55-4.29,3.2-7-1.44-1.62-.81-4,2-4h6.72a3.63,3.63,0,0,0,3.63-3.63v-6.67c0-2.8,2.28-3.41,3.9-2,2.64,2.35,6.72,1.1,6.9-3.18C722,229.62,717.95,228.36,715.27,230.72Z"/><path class="cls-7" d="M154.81,68.44h-7.18c-3,0-3.6-2.46-2.1-4.17,2.48-2.82,1.16-7.12-3.37-7.31-4.53.19-5.86,4.49-3.37,7.3,1.52,1.71.85,4.19-2.1,4.19h-7a3.83,3.83,0,0,0-3.83,3.83v7.12c0,3-2.48,3.6-4.19,2.1-2.82-2.48-7.16-1.16-7.35,3.37.17,4.49,4.53,5.82,7.33,3.33,1.71-1.52,4.21-.85,4.21,2.1v7.09a3.83,3.83,0,0,0,3.83,3.83h7c3,0,3.6,2.41,2.1,4.11-2.48,2.82-1.16,7.12,3.37,7.31,4.53-.19,5.86-4.47,3.37-7.3-1.52-1.71-.85-4.13,2.1-4.13h7.11a3.92,3.92,0,0,0,3.9-3.9v-5a8.3,8.3,0,0,1-3.66.87c-4.38,0-7.69-3.41-7.88-8.11v-.3c.19-4.7,3.51-8.11,7.88-8.11a8.18,8.18,0,0,1,3.66.87V72.26A3.83,3.83,0,0,0,154.81,68.44Z"/><path class="cls-8" d="M556.88,59.21l2.42-2.42-2.42-2.42a2.8,2.8,0,0,1,4-4l2.42,2.42,2.42-2.42a2.8,2.8,0,0,1,4,4l-2.42,2.42,2.42,2.42a2.8,2.8,0,1,1-4,4l-2.41-2.42-2.42,2.42a2.8,2.8,0,0,1-4-4Z"/><path class="cls-9" d="M75,231.72l2.42-2.42L75,226.89a2.8,2.8,0,0,1,4-4l2.42,2.42,2.42-2.42a2.8,2.8,0,0,1,4,4l-2.42,2.42,2.42,2.42a2.8,2.8,0,1,1-4,4l-2.41-2.42-2.42,2.42a2.8,2.8,0,0,1-4-4Z"/><path class="cls-10" d="M739.15,426.45l2.42-2.42-2.42-2.42a2.8,2.8,0,1,1,4-4l2.42,2.42,2.42-2.42a2.8,2.8,0,0,1,4,4L749.48,424l2.42,2.42a2.8,2.8,0,1,1-4,4L745.52,428l-2.42,2.42a2.8,2.8,0,0,1-4-4Z"/><path class="cls-11" d="M38,425.73l2.42-2.42L38,420.9a2.8,2.8,0,1,1,4-4l2.42,2.42,2.42-2.42a2.8,2.8,0,1,1,4,4l-2.42,2.42,2.42,2.42a2.8,2.8,0,1,1-4,4l-2.41-2.42-2.42,2.42a2.8,2.8,0,1,1-4-4Z"/><path class="cls-12" d="M194.36,40.42,196.78,38l-2.42-2.42a2.8,2.8,0,0,1,4-4L200.74,34l2.42-2.42a2.8,2.8,0,1,1,4,4L204.7,38l2.42,2.42a2.8,2.8,0,0,1-4,4L200.74,42l-2.42,2.42a2.8,2.8,0,0,1-4-4Z"/><path class="cls-13" d="M283.07,192.23c-12.77-11-23.48-26-30.47-41.25a118.59,118.59,0,0,1-7.74-22.49,115.49,115.49,0,0,1-2.31-13.28c-.43-3.77,0-8-1.16-11.61-.17-.51-.83-.36-1,.08-1,3.61-.09,8,.35,11.68a118.6,118.6,0,0,0,2.13,12.3,121.05,121.05,0,0,0,21.6,46.27c5.46,7.14,11.61,12.67,18.47,18.38a.06.06,0,0,0,.08-.09Z"/><path class="cls-14" d="M271.24,180.9c.48-.31-2.51.87-5-.06-5.82-2.28-6.23-2.83-12.83-4.15-.73-.15-2.39-.24-3,.3a2,2,0,0,0-.36,2.14,3.89,3.89,0,0,0,1.47,1.58c5.89,4.08,12.59,2,19.9.9Z"/><path class="cls-15" d="M263.18,170c.59-.31-2.42.83-5.35.53-4.43-1.21-5.64-3.47-12.51-5.52-.76-.23-2.55-.47-3.3.1a2.52,2.52,0,0,0-.86,2.42,3.73,3.73,0,0,0,1.25,1.92c5.49,5.14,17.17,3.21,20.92,1.5Z"/><path class="cls-16" d="M257.28,160.52a5.61,5.61,0,0,1-4.8-.9c-6-4.58-5.68-5.23-12.85-9-.79-.41-2.68-1.08-3.53-.65a2.34,2.34,0,0,0-1.13,2.35,4.67,4.67,0,0,0,1.17,2.31c5.43,6.67,14.51,7.16,21.55,6.72Z"/><path class="cls-17" d="M251.46,149.41c.68-.1-3.91-1.79-6.22-4.08-6.92-6.05-5.66-7.72-12.38-12.55-.74-.53-2.55-1.49-3.46-1.18a2.31,2.31,0,0,0-1.42,2.2,4.89,4.89,0,0,0,.88,2.5c4.61,7.53,14,10.58,22.6,13.12Z"/><path class="cls-18" d="M245.78,133c.63-.12-3.26-.52-5.2-2.66-5.19-3.9-4.69-7-10.46-11.4-.64-.49-2.21-1.34-3.05-1a2.56,2.56,0,0,0-1.43,2.17,4.5,4.5,0,0,0,.63,2.38c3.68,7.1,15.75,11.87,19.52,10.53Z"/><path class="cls-19" d="M242.44,120.35c.6-.09-1.72-1.36-3.09-3.19-3.16-4.4-3.95-6.24-8.39-10.08a3.53,3.53,0,0,0-2.62-.92,2.89,2.89,0,0,0-1.75,1.8,3.19,3.19,0,0,0,.11,2c2,6,9.09,8.41,15.74,10.37Z"/><path class="cls-20" d="M241.7,110.53c.51.15-1.59-1.3-2.28-3.43-2.3-4.47-.84-6.41-3.38-11-.28-.5-1.11-1.55-1.86-1.65a2.17,2.17,0,0,0-1.89.76,2.5,2.5,0,0,0-.45,1.6c0,5.4,5,9.79,9.86,13.69Z"/><path class="cls-21" d="M274,183.55c-.49.27,1.89-1.67,2.15-4,.52-5.49.21-6,1.93-11.76.19-.63.84-2,1.58-2.26a2.1,2.1,0,0,1,2.08.51,3.13,3.13,0,0,1,.77,1.76c1.06,6.21-3.8,10.76-8,16.18Z"/><path class="cls-22" d="M266,173.88c-.58.32,2-1.52,3.34-4,1.38-4.18.14-6.31,2.14-12.89.22-.73,1-2.29,1.87-2.61a2.6,2.6,0,0,1,2.5.54,3.45,3.45,0,0,1,.94,2c1.34,7-6.6,15.47-10.07,17.62Z"/><path class="cls-23" d="M258.83,163.83a5.14,5.14,0,0,0,2.45-3.77c.42-6.59-.26-6.77,1.6-13.71.2-.77.93-2.42,1.81-2.77a2.52,2.52,0,0,1,2.51.53,3.75,3.75,0,0,1,1,2.07c1.51,7.39-4,13.85-9,18.4Z"/><path class="cls-24" d="M251.61,150.89c-.64.21,2.44-3,3.25-5.63,2.85-7.39.92-8.13,4.22-14.53.36-.71,1.43-2.17,2.36-2.32a2.52,2.52,0,0,1,2.34,1.06,3.75,3.75,0,0,1,.52,2.24c-.12,7.55-6.58,13.69-12.7,19.17Z"/><path class="cls-25" d="M246.65,137.6c-.6.17,2.58-1.76,3.23-4.23,2.61-5.21.68-7.43,3.54-13.28.32-.65,1.27-2,2.16-2.06a2.73,2.73,0,0,1,2.31,1.11,3.72,3.72,0,0,1,.61,2.13c.27,7.09-7.92,15.82-11.85,16.33Z"/><path class="cls-26" d="M243,123.67c-.59.14,1.09-1.9,1.69-4.11,1.31-5.25,1.36-7.26,4.06-12.47.3-.57,1.21-1.75,2.09-1.82a2.89,2.89,0,0,1,2.3,1,3.2,3.2,0,0,1,.64,1.91c.4,6.36-5.33,11.18-10.78,15.47Z"/><path class="cls-27" d="M241.6,111.77c-.5.22,1.41-1.37,1.74-3.27,1.57-4.15-.29-5.5,1.51-9.78A3.33,3.33,0,0,1,246.48,97a2.66,2.66,0,0,1,2.1.3,1.92,1.92,0,0,1,.76,1.26c1,4.51-3.45,9.08-7.74,13.21Z"/><path class="cls-28" d="M274.09,239c5.72-6.59-3-13.65-11.87-12.22-7.43,1.19-16.78,5.4-20.34.35-.3-6.82,5.59-12.84,9.84-19s6.17-14.87-1.78-18.49c-8.9-3.9-19.35,1.32-28.39,3.85-4.18,1.18-9.86,1.41-12.88-1.44-6.25-5.59,6.37-15-2.84-18.49-4.27-.6-8.49.52-10.34,2.73-2.17,2.67-3.45,7.38-8.12,5.84-5.39-1.75-1.53-7.38-5.55-10.68a9.7,9.7,0,0,0-9.54-.74c-2.22,1.34-2.66,3.6-3,5.74-6.4-1.72-3.88-6.53-15.48-9.1-7.49-1.64-7.77,6.09-1.13,9.34,5.36,2.71,14.29,3.94,14.46,7.7.12,2.63-5.12,2.92-4.93,5.52.25,3.33,7.28,5.21,11.68,5.18s11.43,1.51,11.55,5c-6.94.43-14.15,1-17.48,4.79-3.08,3.73-.08,12,6.28,14.79,4.43,2,8.38.32,12.21-.83s9.79-1.26,12.88,2.46c-3.17,4-5.86,10.05-1.68,14.53,5.6,6.51,17.42-.75,22.66,5.87-3.64,2.89-7.22,5.9-9,10.12s-1.54,10.05,1.4,13.3c5.59,6.63,19.7-1.87,22.34,7,.9,3.75-1.59,8.56-1.16,12.48.4,5.52,6.2,6.38,11.49,4.47,8.4-3,24.22-14,24.77-24.32,0-5.4-7.43-7-7.44-12.31C262.38,245.56,269.53,244.37,274.09,239Z"/><path class="cls-29" d="M184.25,186.88c10.39,3.84,18.77,10.91,26.08,17.13a233.65,233.65,0,0,1,21.9,23.27,173.26,173.26,0,0,1,15.28,25.54c3.51,8.86,7.61,18.23,7.72,28.22,0,.43-.67.91-.82.49-2.92-7.64-4.27-17.19-7.3-25.34a173,173,0,0,0-14-24.86,233.41,233.41,0,0,0-20.66-23.41A205.1,205.1,0,0,0,184.18,187c-.08,0,0-.13.07-.09Z"/><path class="cls-29" d="M225.56,216.82c-.72-6.48,2.25-13.35,6.67-18.6.49-.57,1.76-.06,1.29.54-4.44,5.82-6.08,11.5-7.54,18.11,0,.2-.4.14-.42-.05Z"/><path class="cls-29" d="M200.19,193.49l.14.06c.07,0,.11.09.08.14l-.06.14c0,.1-.21.12-.34.07-1.62-.58-1.39-3.36-1.47-4.3-.18-2-.41-4.41.93-6,.15-.17.65,0,.68.18.27,1.64-.39,3.19-.4,4.81s.25,3.42.37,4.92c0,0,0,0,.05,0Z"/><path class="cls-29" d="M209.44,207.27a32.46,32.46,0,0,0-10.74.26c-1.72.4-3.67,1.86-5.56,1.65-.2,0-.37-.18-.31-.34.57-1.47,3.86-2.07,5.63-2.4a35.42,35.42,0,0,1,11,0c.57.07.57.86,0,.8Z"/><path class="cls-29" d="M240.29,250.52c-5.87-1.07-10.59-.46-15.82,2.53-.51.3-1-.53-.54-.91,4.51-3.4,11.55-4.53,16.6-2.17.32.15.11.61-.25.55Z"/><path class="cls-29" d="M249,253.21c1.6-5.49,5.6-12.64,11.9-15.4.65-.28,1.16.46.52.86-6.3,4-8.39,9-12,14.61-.13.2-.49.19-.41-.07Z"/><path class="cls-29" d="M229.54,229.3c-7.23-2.07-14.85-5-21.28-1.17-.57.35-1.25-.61-.66-.94,6.25-3.47,15.31-1.44,22,2,.09,0,0,.18-.08.15Z"/><path class="cls-30" d="M291.45,289.87c-16.4-3.91-28.83,17.39-41.59-4.22a24,24,0,0,1-3.44-11.15c-1.23-13.52-16.15-27.64-31.21-20.9-7.75,3.44-13.79,11.7-21.84,11.09-2.89-.21-5.43-1.57-7.88-2.89-10.43-5.41-21.87-10.87-34.74-10.34-14,.63-26.9,8.55-30.58,18.77-3.41,10.06,2.06,22.09,12.54,29.14,8.87,6.36,20.66,9,27.77,16.8,7.25,8.45,8,21,16.05,28.46,13.64,13.94,38.48-.43,50.3,14.76,4.24,6,4.81,14.84,8.56,21.21,4.08,7.36,11.51,10.08,18.48,9.69s14.09-3.52,21.27-5.37c8.91-2.34,17.38-7.19,25.86-8.82,5-1,9.72-7.3,10.4-14.11C314.87,319.14,313.72,295.75,291.45,289.87Z"/><path class="cls-31" d="M149.87,282.72a208.11,208.11,0,0,1,27.7,4.29c-3.62-4.6-7.21-10.46-6.87-16.07,0-.28.56-.44.68-.15,1.08,2.56,1.43,5.32,2.47,7.91a44.1,44.1,0,0,0,4.55,8.4s0,.06,0,.08c3.95.9,7.85,1.88,11.66,3,14,4.45,26.94,10.66,37.84,16.17q3.47,2,6.82,4a131.79,131.79,0,0,1-7.06-13.75c-1.91-1.18-3.58-2.78-5.33-4.06q-3.77-2.71-7.69-5.29c-.7-.45.39-1.44,1.07-1,2.53,1.8,5,3.65,7.39,5.56,1.2,1,2.58,2,3.8,3a71.51,71.51,0,0,1-4.79-16.65c-.12-.74,1.21-1.21,1.45-.47,3.44,11.15,6.59,21.89,12.19,32.34.15.29-.1.56-.38.65a376.66,376.66,0,0,1,43.83,30.43,155.46,155.46,0,0,1-.74-17.07c-1.15-1.9-1.95-4.12-2.93-6.1q-2.11-4.14-4.38-8.18c-.39-.68.94-1.44,1.3-.74,1.41,2.76,2.75,5.55,4,8.39.65,1.52,1.42,3.06,2,4.66A97,97,0,0,1,281,302.73c.2-.85,1.49-.94,1.39-.09-1.61,13.05-3,25.7-2.22,38.47a.57.57,0,0,1-.41.56c2.11,1.73,4.17,3.48,6.18,5.23l.18-.14c.49-.38.88.18.46.63l0,0a238.54,238.54,0,0,1,22.12,22A213.78,213.78,0,0,1,332,410a1.09,1.09,0,1,1-2,.88A211.56,211.56,0,0,0,307,370.78,235.82,235.82,0,0,0,285,349c-10.28,10.19-24.3,14.15-35.87,18.63-.22.08-.32-.3-.11-.39,5.89-2.61,11.9-5.14,17.93-7.91s11.52-6.76,17.19-11.07a332.08,332.08,0,0,0-37.58-27.91,18.43,18.43,0,0,1-3.81,2.55c-4.55,2.71-9.11,5.27-13.59,7.85-6.25,3.59-13,9.05-20.12,9.51a.35.35,0,0,1-.09-.7c7-1.7,13.31-6,19.73-9.66,5.35-3,12.24-5.88,17.37-9.88q-9.09-5.86-19.19-11.73c-7.49-3.79-16-7.91-25.16-11.56-6.8,1.18-13.22,2.43-19,6s-9.95,8.35-15.05,12.14c-.05,0-.13,0-.09-.06,4.5-4.9,10-10.56,16.65-14.14,4.69-2.55,10.14-3.8,15.59-4.67-3.39-1.32-6.86-2.56-10.4-3.69a200.78,200.78,0,0,0-39.74-7.39,1.08,1.08,0,0,1-1-1.17A1.1,1.1,0,0,1,149.87,282.72Z"/><path class="cls-31" d="M178,275c-.93,1.53-1.65,3.36-3.11,4.65-.11.1-.29,0-.27-.09.23-1.64,1.55-3.32,2.42-4.87,1-1.82,2-3.66,3.18-5.47.35-.54,1.33-.22,1,.32C180.24,271.36,179.09,273.16,178,275Z"/><path class="cls-31" d="M182,301c.24.06.11.34-.1.36-3.37.43-6.81,0-10.22.28a92.23,92.23,0,0,0-11.5,1.76c-.11,0-.17-.09-.06-.13C166.33,301.15,175.43,299.25,182,301Z"/><path class="cls-31" d="M229.76,328c.36,0,.24.64-.13.61-9.16-.69-18.26.51-27.41.28a.21.21,0,0,1-.07-.42C210.81,326.18,221.14,327.05,229.76,328Z"/><path class="cls-31" d="M261.18,363.41s0,0,0,0c-.67,3-2.67,6-4.32,8.62s-3.38,5.74-5.77,7.11a.19.19,0,0,1-.25-.26c1.13-2.51,3.46-4.59,5-6.91C257.79,369.25,259.12,366,261.18,363.41Z"/><path class="cls-32" d="M357.72,556.67a110.55,110.55,0,0,0-11.66-16.93,10.57,10.57,0,0,0,.89-1.92c.37-1.22.56-3.23,1-4.43a26.74,26.74,0,0,0,2-8.7c0-3-1.07-6.13-3.47-7.92a2.36,2.36,0,0,0-1.49-.58,2.4,2.4,0,0,0-1.6,1,12.25,12.25,0,0,0-2.24,5.37c-.9,4.45.35,9.25,1.89,13.61A124.1,124.1,0,0,0,325,520.27a9.75,9.75,0,0,0,.59-1.6c.3-1.24.37-3.25.73-4.48a26.75,26.75,0,0,0,1.46-8.8c-.16-3-1.42-6.06-3.92-7.7a2.36,2.36,0,0,0-1.53-.49,2.4,2.4,0,0,0-1.54,1.12,12.25,12.25,0,0,0-1.93,5.49c-.68,4.78,1.08,9.81,3,14.28a126,126,0,0,0-16.21-9.4,11.11,11.11,0,0,0,1-2.32c.3-1.24.37-3.25.73-4.48a26.74,26.74,0,0,0,1.46-8.8c-.16-3-1.42-6.06-3.92-7.7a2.36,2.36,0,0,0-1.53-.49,2.4,2.4,0,0,0-1.54,1.12,12.25,12.25,0,0,0-1.93,5.49c-.71,5,1.23,10.24,3.26,14.84a7.35,7.35,0,0,1,.36,1.3c-3.17-1.5-6.45-2.76-9.69-4.09-3.83-1.3-7.63-2.7-11.56-3.66-1.19-.33-2.38-.61-3.57-.91.06-.22.12-.44.15-.62.22-1.26.16-3.27.44-4.52a26.74,26.74,0,0,0,.89-8.88c-.35-3-1.81-6-4.41-7.44a2.36,2.36,0,0,0-1.55-.39,2.4,2.4,0,0,0-1.46,1.22,12.25,12.25,0,0,0-1.57,5.6c-.37,4.85,1.74,9.8,4,14.16-5.42-1.27-10.83-2.38-16.14-3.77a114.13,114.13,0,0,1-12.63-4,11.09,11.09,0,0,0,1.58-1.92c.65-1.1,1.31-3,2-4.07a26.74,26.74,0,0,0,4-8c.72-2.9.42-6.21-1.48-8.52a2.36,2.36,0,0,0-1.31-.92,2.4,2.4,0,0,0-1.8.62,12.25,12.25,0,0,0-3.46,4.68c-2.14,4.56-1.84,10.15-1.25,15.14a15.3,15.3,0,0,1-.11,2.21,52.63,52.63,0,0,1-7.16-3.7,34.64,34.64,0,0,1-8.62-7.44,28,28,0,0,1-3-4.28,11,11,0,0,0,2.65-1.08c1.08-.68,2.54-2.07,3.65-2.7a26.74,26.74,0,0,0,7.2-5.28c2-2.25,3.22-5.33,2.58-8.25a2.36,2.36,0,0,0-.75-1.42,2.4,2.4,0,0,0-1.88-.27,12.25,12.25,0,0,0-5.22,2.58c-4,3.07-6.28,8.18-8,12.89a13.72,13.72,0,0,1-1.06,1.82,21.4,21.4,0,0,1-1.66-4A50.39,50.39,0,0,1,221,451.8a1.77,1.77,0,0,0,.36,0,10.62,10.62,0,0,0,3.21-.84c1.15-.55,2.75-1.78,3.92-2.28a26.74,26.74,0,0,0,7.72-4.47c2.2-2,3.78-4.95,3.46-7.92a2.36,2.36,0,0,0-.59-1.49,2.4,2.4,0,0,0-1.84-.47,12.24,12.24,0,0,0-5.47,2c-4.3,2.62-7.13,7.45-9.39,11.94a16.39,16.39,0,0,1-1.35,1.84c0-1.66.12-3.33.23-5,.32-5.19.78-10.4,1-15.64h.07a10.62,10.62,0,0,0,3.21-.84c1.15-.55,2.75-1.78,3.92-2.28a26.74,26.74,0,0,0,7.72-4.47c2.2-2,3.78-4.95,3.46-7.92a2.36,2.36,0,0,0-.59-1.49,2.4,2.4,0,0,0-1.84-.47,12.25,12.25,0,0,0-5.47,2c-4.3,2.62-7.13,7.45-9.39,11.94a9.73,9.73,0,0,1-1,1.38c0-2,0-4.09-.06-6.14l-.29-3-.14-1.51-.28-1.49c-.2-1-.37-2-.59-3l-.91-2.92a11,11,0,0,0-.58-1.66,33.08,33.08,0,0,0,2.82-2.59c.9-.91,1.85-1.76,2.78-2.63a26.74,26.74,0,0,0,5.79-6.79c1.4-2.64,1.91-5.92.62-8.62a2.36,2.36,0,0,0-1.05-1.21,2.4,2.4,0,0,0-1.89.17,12.24,12.24,0,0,0-4.49,3.71c-3.18,3.9-4.49,8.51-5.13,13.49a15,15,0,0,1-.57,2c-.23-.51-.47-1-.74-1.5a32.3,32.3,0,0,0-3.53-5.05,38,38,0,0,0-8.33-7.25c.28-.92.38-2.36.58-3,.37-1.22.81-2.42,1.24-3.62a26.74,26.74,0,0,0,2-8.71c0-3-1.07-6.13-3.47-7.92a2.36,2.36,0,0,0-1.49-.58,2.4,2.4,0,0,0-1.6,1,12.25,12.25,0,0,0-2.24,5.37A27.32,27.32,0,0,0,202,388.8l.13.35a75.62,75.62,0,0,0-8.26-3.94c-2.59-1.05-5.19-2-7.8-2.9.14-.79.24-1.65.38-2.11.37-1.22.81-2.42,1.24-3.62a26.73,26.73,0,0,0,2-8.71c0-3-1.07-6.13-3.47-7.92a2.36,2.36,0,0,0-1.5-.58,2.4,2.4,0,0,0-1.6,1,12.25,12.25,0,0,0-2.24,5.37A27.32,27.32,0,0,0,182,380.62l.13.33c-3.64-1.23-7.27-2.44-10.82-3.77-2.13-.81-4.24-1.69-6.31-2.63.31-.68.59-1.41.83-1.79.67-1.08,1.4-2.13,2.12-3.19a26.74,26.74,0,0,0,4.11-7.92c.77-2.89.52-6.2-1.34-8.54a2.36,2.36,0,0,0-1.3-.94,2.4,2.4,0,0,0-1.81.59,12.24,12.24,0,0,0-3.54,4.62,27.32,27.32,0,0,0-2.6,14.67c0,.21.05.49.09.8a42.72,42.72,0,0,1-10.15-7.19,35.5,35.5,0,0,1-4.35-5.23c.69-.46,1.56-1.4,2.06-1.74.9-.62,1.83-1.19,2.76-1.78a22.9,22.9,0,0,0,5.94-4.81,8.36,8.36,0,0,0,1.87-7.16,2,2,0,0,0-.7-1.18,2.06,2.06,0,0,0-1.62-.16,10.49,10.49,0,0,0-4.36,2.42A23.39,23.39,0,0,0,146,356.66c-.11.33-.27.83-.4,1.38-.29-.51-.6-1-.86-1.54a46.56,46.56,0,0,1-3.77-11c-.09-.43-.15-.87-.23-1.3.49-.38,1-1,1.38-1.2.68-.47,1.39-.91,2.1-1.35a17.43,17.43,0,0,0,4.52-3.66,6.37,6.37,0,0,0,1.43-5.45,1.54,1.54,0,0,0-.53-.9,1.57,1.57,0,0,0-1.23-.12,8,8,0,0,0-3.32,1.84,17.74,17.74,0,0,0-5,7.15,176.29,176.29,0,0,1-1.54-18.59h-.42c-.22,4-.35,8-.28,12,0,2.69.18,5.4.46,8.1l-.28-.09c-.76-.34-1.5-.72-2.24-1.09a17.43,17.43,0,0,0-5.47-2,6.37,6.37,0,0,0-5.4,1.6,1.54,1.54,0,0,0-.5.92,1.57,1.57,0,0,0,.54,1.12,8,8,0,0,0,3.29,1.89,17.81,17.81,0,0,0,9.7.41l.69-.18c.07.44.12.88.2,1.32a49,49,0,0,0,3.43,11.73c.22.48.47.95.71,1.42a6.76,6.76,0,0,1-.82-.18c-1-.34-2.05-.75-3.08-1.14a22.9,22.9,0,0,0-7.41-1.86,8.36,8.36,0,0,0-6.85,2.81,2,2,0,0,0-.53,1.27,2.06,2.06,0,0,0,.85,1.39,10.49,10.49,0,0,0,4.55,2,23.4,23.4,0,0,0,12.74-.74,14.19,14.19,0,0,0,2-.86,33.94,33.94,0,0,0,4.7,6.13,41.14,41.14,0,0,0,7.59,6.16l-.53-.12a22.9,22.9,0,0,0-7.59-.88,8.36,8.36,0,0,0-6.43,3.67,2,2,0,0,0-.36,1.33,2.06,2.06,0,0,0,1,1.27,10.49,10.49,0,0,0,4.78,1.43,23.4,23.4,0,0,0,12.54-2.38,13.3,13.3,0,0,0,2.05-1.21c2.56,1.28,5.18,2.4,7.79,3.43s4.94,1.83,7.42,2.66a22.42,22.42,0,0,0-7.25,1.73,8.36,8.36,0,0,0-4.8,5.64,2,2,0,0,0,.11,1.37,2.06,2.06,0,0,0,1.39.84,10.49,10.49,0,0,0,5-.29,23.4,23.4,0,0,0,11-6.5c.18-.19.43-.45.69-.75,3,1,6.06,2,9,3.1a85.47,85.47,0,0,1,8.27,3.51h0c-1.08.17-2.17.28-3.25.4a22.91,22.91,0,0,0-7.44,1.75,8.36,8.36,0,0,0-4.8,5.64,2,2,0,0,0,.11,1.37,2.06,2.06,0,0,0,1.39.84,10.49,10.49,0,0,0,5-.29,23.4,23.4,0,0,0,11-6.5,15.76,15.76,0,0,0,1.28-1.48,35.84,35.84,0,0,1,8.3,6.49,30.13,30.13,0,0,1,3.54,4.54c.44.7.8,1.45,1.18,2.18-.73,0-1.54,0-2,0-1.08-.14-2.16-.33-3.24-.52a22.91,22.91,0,0,0-7.63-.39,8.36,8.36,0,0,0-6.18,4.08,2,2,0,0,0-.27,1.35,2.06,2.06,0,0,0,1.1,1.2,10.49,10.49,0,0,0,4.86,1.11,23.4,23.4,0,0,0,12.35-3.19,12.69,12.69,0,0,0,2.05-1.42,8.35,8.35,0,0,1,.32.8l1,2.75c.24.94.43,1.9.65,2.85l.32,1.43.18,1.46.34,2.93c.15,2.29.17,4.58.11,6.88-.73-.37-2-.68-2.5-.95-1-.49-1.92-1-2.88-1.57a22.9,22.9,0,0,0-7.07-2.91,8.36,8.36,0,0,0-7.18,1.79,2,2,0,0,0-.7,1.18,2.06,2.06,0,0,0,.64,1.5,10.49,10.49,0,0,0,4.21,2.67A23.4,23.4,0,0,0,218.31,431a11,11,0,0,0,2.7-.79c-.22,4.93-.76,9.88-1.15,14.84-.11,1.51-.22,3-.29,4.53-.68-.39-1.57-.76-2-1-.9-.61-1.77-1.28-2.65-1.93a22.9,22.9,0,0,0-6.62-3.81,8.36,8.36,0,0,0-7.35.83,2,2,0,0,0-.85,1.08,2.06,2.06,0,0,0,.44,1.57,10.49,10.49,0,0,0,3.83,3.2,23.4,23.4,0,0,0,12.46,2.76,11.8,11.8,0,0,0,2.65-.37c-.09,1.73-.08,3.46-.09,5.2a45.89,45.89,0,0,0,1.73,12,15.33,15.33,0,0,0,.7,2.23,4.17,4.17,0,0,1-.37-.24c-.87-.66-1.7-1.37-2.55-2.06a22.9,22.9,0,0,0-6.42-4.15,8.36,8.36,0,0,0-7.39.45,2,2,0,0,0-.91,1,2.06,2.06,0,0,0,.36,1.59,10.49,10.49,0,0,0,3.66,3.39,23.39,23.39,0,0,0,12.3,3.4,11.91,11.91,0,0,0,2.64-.23l.16.37a34.16,34.16,0,0,0,3.29,5.27,35.09,35.09,0,0,0,9,8.44c.95.63,1.91,1.22,2.89,1.79a21.2,21.2,0,0,0-7,.08,8.36,8.36,0,0,0-6,4.39,2,2,0,0,0-.2,1.36,2.06,2.06,0,0,0,1.16,1.14,10.49,10.49,0,0,0,4.91.86,23.4,23.4,0,0,0,12.17-3.82c.3-.19.75-.5,1.21-.85A103.25,103.25,0,0,0,258,498.09c4.82,1.36,9.68,2.48,14.48,3.67l-1.81.29a22.91,22.91,0,0,0-7.38,2,8.36,8.36,0,0,0-4.6,5.8,2,2,0,0,0,.16,1.36,2.06,2.06,0,0,0,1.42.8,10.49,10.49,0,0,0,5-.45A23.4,23.4,0,0,0,276,504.68a14.72,14.72,0,0,0,1.32-1.67c1.27.34,2.54.67,3.79,1,3.79,1,7.46,2.37,11.17,3.64,1.94.79,3.89,1.58,5.82,2.39l-1.1.1a22.89,22.89,0,0,0-7.49,1.52,8.36,8.36,0,0,0-5,5.49,2,2,0,0,0,.07,1.37,2.06,2.06,0,0,0,1.37.89,10.49,10.49,0,0,0,5-.13,23.4,23.4,0,0,0,11.17-6.16c.21-.21.53-.52.85-.87l.09,0a134,134,0,0,1,16.49,9.14c-1,.06-2,.07-3,.1a22.9,22.9,0,0,0-7.57,1.06,8.36,8.36,0,0,0-5.29,5.17,2,2,0,0,0,0,1.37,2.06,2.06,0,0,0,1.31,1,10.49,10.49,0,0,0,5,.17,23.4,23.4,0,0,0,11.53-5.46,17,17,0,0,0,1.29-1.23l.64.43a118,118,0,0,1,17.93,15.17c.28.3.55.61.83.91a10.21,10.21,0,0,1-1.21.14c-1.09,0-2.19,0-3.28-.09a22.9,22.9,0,0,0-7.62.62,8.36,8.36,0,0,0-5.58,4.86,2,2,0,0,0-.09,1.37,2.06,2.06,0,0,0,1.25,1,10.49,10.49,0,0,0,5,.46,23.39,23.39,0,0,0,11.83-4.79,14.06,14.06,0,0,0,1.68-1.49,111.51,111.51,0,0,1,11.75,15.47c1.91,3.44,4,6.82,5.53,10.45l1.27,2.69,1,2.78c.67,1.86,1.47,3.68,2.08,5.59l.4-.12A97.65,97.65,0,0,0,357.72,556.67Z"/><path class="cls-33" d="M513.52,207.32c12.93-10.77,23.87-25.65,31.09-40.79a118.62,118.62,0,0,0,8.08-22.37,115.53,115.53,0,0,0,2.51-13.24c.48-3.77.11-8,1.33-11.59.17-.51.83-.35,1,.1,1,3.62,0,8-.52,11.67a118.63,118.63,0,0,1-2.32,12.26,121.06,121.06,0,0,1-22.3,45.94c-5.56,7.06-11.8,12.49-18.75,18.1a.06.06,0,0,1-.08-.09Z"/><path class="cls-34" d="M525.52,196.17c-.48-.31,2.49.91,5,0,5.86-2.19,6.27-2.74,12.89-4,.73-.13,2.4-.2,3,.34a2,2,0,0,1,.33,2.15,3.89,3.89,0,0,1-1.49,1.55c-5.95,4-12.62,1.77-19.91.6Z"/><path class="cls-35" d="M533.75,185.43c-.59-.32,2.41.87,5.34.61,4.45-1.14,5.69-3.39,12.59-5.33.76-.21,2.55-.43,3.3.15a2.52,2.52,0,0,1,.83,2.43,3.73,3.73,0,0,1-1.28,1.9c-5.57,5.06-17.21,2.95-20.94,1.18Z"/><path class="cls-36" d="M539.78,176a5.61,5.61,0,0,0,4.82-.83c6-4.49,5.76-5.15,13-8.77.8-.4,2.69-1,3.54-.6a2.34,2.34,0,0,1,1.09,2.37,4.67,4.67,0,0,1-1.2,2.29c-5.53,6.59-14.62,6.94-21.65,6.4Z"/><path class="cls-37" d="M545.77,165c-.68-.11,3.93-1.73,6.28-4,7-5.95,5.78-7.64,12.57-12.36.75-.52,2.57-1.45,3.48-1.13a2.31,2.31,0,0,1,1.39,2.22,4.89,4.89,0,0,1-.92,2.49c-4.73,7.46-14.11,10.37-22.8,12.78Z"/><path class="cls-38" d="M551.7,148.62c-.62-.13,3.27-.48,5.24-2.58,5.24-3.82,4.8-6.91,10.63-11.25.64-.48,2.23-1.31,3.07-1A2.56,2.56,0,0,1,572,136a4.5,4.5,0,0,1-.67,2.37c-3.78,7-15.93,11.63-19.67,10.23Z"/><path class="cls-39" d="M555.23,136.06c-.6-.09,1.74-1.33,3.14-3.14,3.23-4.35,4-6.18,8.54-9.95a3.53,3.53,0,0,1,2.63-.88,2.89,2.89,0,0,1,1.73,1.82,3.19,3.19,0,0,1-.14,2c-2.08,6-9.22,8.27-15.9,10.13Z"/><path class="cls-40" d="M556.11,126.25c-.51.14,1.61-1.28,2.33-3.39,2.37-4.44.94-6.4,3.55-10.93.29-.5,1.13-1.53,1.88-1.62a2.17,2.17,0,0,1,1.88.79,2.5,2.5,0,0,1,.43,1.61c0,5.4-5.19,9.71-10.06,13.54Z"/><path class="cls-41" d="M522.74,198.78c.48.28-1.86-1.7-2.09-4-.44-5.5-.12-6-1.76-11.79-.18-.64-.81-2-1.55-2.28a2.1,2.1,0,0,0-2.09.48,3.13,3.13,0,0,0-.79,1.75c-1.15,6.19,3.64,10.81,7.73,16.3Z"/><path class="cls-42" d="M530.86,189.23c.58.33-2-1.55-3.28-4.09-1.32-4.2,0-6.31-1.95-12.92-.21-.73-1-2.3-1.83-2.64a2.6,2.6,0,0,0-2.51.5,3.45,3.45,0,0,0-1,2c-1.45,7,6.37,15.56,9.81,17.77Z"/><path class="cls-43" d="M538.19,179.29a5.14,5.14,0,0,1-2.39-3.81c-.32-6.6.36-6.76-1.39-13.74-.19-.77-.9-2.43-1.77-2.79a2.52,2.52,0,0,0-2.52.5,3.74,3.74,0,0,0-1,2.06c-1.62,7.37,3.83,13.91,8.68,18.53Z"/><path class="cls-44" d="M545.6,166.46c.63.22-2.4-3-3.17-5.68-2.73-7.44-.8-8.14-4-14.59-.35-.71-1.4-2.19-2.33-2.35a2.52,2.52,0,0,0-2.36,1,3.75,3.75,0,0,0-.55,2.23c0,7.55,6.37,13.79,12.41,19.36Z"/><path class="cls-45" d="M550.76,153.25c.6.18-2.56-1.8-3.17-4.28-2.53-5.25-.56-7.43-3.34-13.33-.31-.65-1.24-2-2.13-2.09a2.73,2.73,0,0,0-2.33,1.08,3.72,3.72,0,0,0-.64,2.12c-.37,7.09,7.68,15.94,11.6,16.5Z"/><path class="cls-46" d="M554.57,139.37c.59.15-1.07-1.91-1.63-4.13-1.23-5.27-1.25-7.28-3.87-12.53-.29-.58-1.19-1.77-2.06-1.86a2.89,2.89,0,0,0-2.31,1,3.2,3.2,0,0,0-.67,1.9c-.49,6.35,5.16,11.26,10.54,15.63Z"/><path class="cls-47" d="M556.2,127.49c.49.22-1.39-1.39-1.69-3.3-1.51-4.17.38-5.5-1.36-9.8a3.33,3.33,0,0,0-1.6-1.74,2.66,2.66,0,0,0-2.11.27,1.93,1.93,0,0,0-.78,1.25c-1.08,4.49,3.31,9.13,7.54,13.32Z"/><path class="cls-48" d="M529.18,226.17c-4.69-8,5.83-13.68,14.8-10.46,7.54,2.7,16.5,8.93,21.21,4.34,1.65-7.07-3.34-14.53-6.59-21.77s-3.55-16.76,5.47-19c10.07-2.34,20,5.17,28.94,9.57,4.14,2.05,10,3.4,13.75,1,7.62-4.63-3.73-16.91,6.58-18.78,4.58.21,8.78,2.2,10.28,4.88,1.75,3.21,2.17,8.39,7.35,7.7,6-.78,3-7.42,7.89-10.08,3.07-1.63,8-.77,10.12,1.09s2.08,4.28,2,6.59c7-.55,5.33-6.07,18-6.49,8.15-.25,6.94,7.89-.64,10-6.13,1.78-15.72,1.32-16.62,5.23-.64,2.72,4.79,4.05,4.08,6.74-.92,3.43-8.64,4-13.23,3.13s-12.25-.66-13.06,3c7.17,1.81,14.6,3.82,17.35,8.42,2.49,4.5-2.26,12.55-9.45,14.25-5,1.22-8.82-1.3-12.61-3.25s-10-3.23-14,.06c2.54,4.79,4.16,11.66-1.08,15.53-7.13,5.71-18.08-4.19-24.85,1.71,3.24,3.74,6.4,7.59,7.47,12.35s-.35,10.81-4.07,13.63c-7.14,5.85-20.23-5.81-24.74,3-1.68,3.75,0,9.26-1.23,13.28-1.49,5.69-7.73,5.47-12.89,2.43-8.21-4.73-22.6-19.34-21.15-30.28,1.06-5.65,9.15-5.89,10.19-11.42C540.15,235.3,532.9,232.65,529.18,226.17Z"/><path class="cls-29" d="M633.32,189.2c-11.62,2-21.76,7.74-30.63,12.82a248.58,248.58,0,0,0-27.45,20.06,184.31,184.31,0,0,0-21,23.72c-5.41,8.58-11.52,17.58-13.59,28-.07.45.53,1.08.76.67,4.55-7.41,7.83-17.14,12.58-25.08a184.11,184.11,0,0,1,19.45-23.27,248.37,248.37,0,0,1,26.18-20.45,218.2,218.2,0,0,1,33.72-16.37c.1,0,.05-.13-.05-.11Z"/><path class="cls-29" d="M584.26,212.44c2-6.64.25-14.4-3.34-20.76-.4-.69-1.83-.41-1.45.31,3.51,7,4.11,13.22,4.34,20.41,0,.22.39.23.45,0Z"/><path class="cls-29" d="M615.36,193l-.16,0c-.08,0-.13.07-.12.13l0,.16c0,.11.2.16.34.14,1.8-.29,2.11-3.24,2.38-4.21.57-2,1.29-4.53.2-6.46-.12-.21-.67-.17-.75.06-.6,1.66-.22,3.41-.52,5.11s-.93,3.53-1.35,5.07c0,0,0,0-.05,0Z"/><path class="cls-29" d="M603,205.6A34.54,34.54,0,0,1,614.18,208c1.72.76,3.47,2.66,5.49,2.81.22,0,.43-.12.39-.3-.31-1.65-3.63-2.92-5.41-3.61a37.69,37.69,0,0,0-11.49-2.11c-.61,0-.77.79-.16.84Z"/><path class="cls-29" d="M562.28,244.81c6.35,0,11.17,1.58,16,5.74.48.41,1.18-.35.74-.84-4.05-4.44-11.2-7-16.94-5.52-.37.1-.23.62.15.62Z"/><path class="cls-29" d="M552.63,245.92c-.59-6.06-3.39-14.31-9.44-18.43-.62-.42-1.3.25-.72.8,5.8,5.45,7,11.07,9.71,17.62.1.24.47.3.44,0Z"/><path class="cls-29" d="M577.67,224.71c8-.75,16.51-2.33,22.48,2.93.53.48,1.42-.39.87-.86-5.86-4.85-15.74-4.5-23.41-2.25-.1,0-.06.18.05.17Z"/><path class="cls-49" d="M505,291.21c16.83-1,25.36,22.15,41.69,3.09A24,24,0,0,0,552,283.93c3.57-13.1,20.71-24.4,34.37-15.14,7,4.74,11.53,13.92,19.58,14.73,2.89.3,5.63-.6,8.26-1.47,11.21-3.51,23.43-6.89,36-4.13,13.68,3.06,25,13.11,26.84,23.81,1.61,10.5-5.88,21.4-17.42,26.51-9.84,4.72-21.92,5.26-30.27,11.7-8.61,7.06-11.51,19.24-20.77,25.23-15.86,11.35-37.82-7.13-52.1,5.77-5.22,5.14-7.33,13.78-12.12,19.39-5.3,6.54-13.09,7.92-19.88,6.32s-13.26-5.92-20-9c-8.36-3.86-15.86-10.11-23.92-13.19-4.77-1.84-8.3-8.88-7.78-15.71C476.83,316,482,293.13,505,291.21Z"/><path class="cls-31" d="M645.65,308.86a208.09,208.09,0,0,0-28-.61c4.36-3.9,8.92-9,9.56-14.63,0-.27-.47-.53-.65-.27-1.51,2.33-2.33,5-3.81,7.36a44.1,44.1,0,0,1-5.94,7.48s0,.05,0,.08c-4,.2-8.06.48-12,.93-14.54,1.95-28.39,5.8-40.07,9.32q-3.77,1.38-7.42,2.79A131.87,131.87,0,0,0,566.62,309c2.09-.83,4-2.11,6-3.07q4.18-2,8.49-3.87c.77-.33-.13-1.48-.88-1.13-2.8,1.33-5.56,2.72-8.25,4.18-1.35.75-2.88,1.48-4.27,2.32a71.51,71.51,0,0,0,7.62-15.56c.24-.71-1-1.4-1.34-.71-5.33,10.38-10.3,20.4-17.64,29.72-.2.26,0,.57.26.71a376.67,376.67,0,0,0-48.46,22.33,155.47,155.47,0,0,0,3.7-16.68c1.46-1.67,2.63-3.72,3.94-5.49q2.79-3.71,5.74-7.29c.5-.6-.68-1.58-1.15-1-1.87,2.47-3.68,5-5.41,7.57-.91,1.38-1.93,2.77-2.8,4.24a97,97,0,0,0,.95-19.61c-.05-.87-1.31-1.19-1.35-.33-.69,13.14-1.53,25.83-4.52,38.27a.57.57,0,0,0,.3.63c-2.38,1.34-4.71,2.7-7,4.07l-.15-.17c-.42-.46-.9,0-.57.54l0,0a238.5,238.5,0,0,0-25.61,17.79,213.77,213.77,0,0,0-30.07,35.91,1.09,1.09,0,0,0,.3,1.51,1.08,1.08,0,0,0,1.51-.3,211.54,211.54,0,0,1,29.7-35.48A235.87,235.87,0,0,1,501,350.56c8.34,11.83,21.46,18.17,32.08,24.6.2.12.37-.24.17-.37-5.34-3.59-10.82-7.14-16.28-10.92s-10.17-8.66-15-13.9A332.09,332.09,0,0,1,543.87,329a18.42,18.42,0,0,0,3.31,3.17c4,3.46,8.06,6.78,12,10.1,5.53,4.63,11.18,11.17,18.16,12.87a.35.35,0,0,0,.21-.67c-6.61-2.89-12.05-8.27-17.75-13-4.74-3.9-11-7.92-15.39-12.76q10-4.18,20.94-8.21c8-2.42,17.15-5,26.79-7,6.49,2.35,12.59,4.69,17.64,9.2s8.34,10,12.71,14.58c0,0,.13,0,.1,0-3.58-5.61-8.05-12.15-13.93-16.82-4.17-3.32-9.33-5.51-14.54-7.32,3.57-.7,7.2-1.32,10.88-1.82a200.79,200.79,0,0,1,40.42-.34,1.08,1.08,0,0,0,1.18-1A1.1,1.1,0,0,0,645.65,308.86Z"/><path class="cls-31" d="M619.32,296.32c.65,1.67,1,3.6,2.25,5.12.09.12.28.08.28,0,.06-1.66-.94-3.53-1.53-5.22-.69-2-1.36-4-2.18-5.94-.25-.59-1.27-.44-1.08.14C617.73,292.37,618.55,294.35,619.32,296.32Z"/><path class="cls-31" d="M610.87,321.22c-.25,0-.17.31,0,.38,3.24,1,6.7,1.2,10,2.06a92.21,92.21,0,0,1,11,3.73c.1,0,.18-.06.08-.12C626.23,324.13,617.61,320.67,610.87,321.22Z"/><path class="cls-31" d="M559.1,339.49c-.36,0-.35.58,0,.62,9.14.92,17.89,3.69,26.94,5.05.25,0,.39-.28.14-.4C578.07,341,567.75,340.08,559.1,339.49Z"/><path class="cls-31" d="M522,368.91s0,0,0,0c.13,3.09,1.58,6.42,2.75,9.24,1.1,2.66,2.32,6.24,4.45,8a.19.19,0,0,0,.29-.21c-.67-2.67-2.61-5.12-3.76-7.68C524.31,375.25,523.55,371.86,522,368.91Z"/><path class="cls-50" d="M651.52,381.17a7.28,7.28,0,0,0-5.9-2.59,19.93,19.93,0,0,0-6.49,1.46c-.9.32-1.79.64-2.7.92a5.86,5.86,0,0,1-.71.14c.22-.41.45-.81.65-1.22a42.64,42.64,0,0,0,3.24-10.13c.08-.38.13-.76.2-1.14l.6.17a15.5,15.5,0,0,0,8.45-.15,7,7,0,0,0,2.91-1.57,1.36,1.36,0,0,0,.49-1,1.34,1.34,0,0,0-.41-.81,5.54,5.54,0,0,0-4.66-1.51,15.18,15.18,0,0,0-4.8,1.6c-.65.31-1.31.62-2,.9l-.24.08c.31-2.34.48-4.69.58-7,.14-3.48.12-7,0-10.42h-.36A153.4,153.4,0,0,1,638.65,365a15.43,15.43,0,0,0-4.2-6.33A7,7,0,0,0,631.6,357a1.36,1.36,0,0,0-1.08.08,1.34,1.34,0,0,0-.48.77,5.54,5.54,0,0,0,1.12,4.77,15.16,15.16,0,0,0,3.85,3.28c.6.4,1.21.79,1.8,1.22.29.21.76.73,1.17,1.07-.08.37-.14.75-.23,1.12a40.49,40.49,0,0,1-3.51,9.46c-.24.45-.52.88-.78,1.32-.1-.47-.23-.92-.32-1.21a20.36,20.36,0,0,0-5.92-9.39,9.12,9.12,0,0,0-3.74-2.2,1.79,1.79,0,0,0-1.41.1,1.76,1.76,0,0,0-.63,1,7.27,7.27,0,0,0,1.48,6.27A19.92,19.92,0,0,0,628,379c.79.53,1.59,1,2.36,1.6.43.31,1.17,1.15,1.75,1.56a30.9,30.9,0,0,1-3.9,4.46,37.18,37.18,0,0,1-9,6c0-.27.07-.51.1-.69a23.77,23.77,0,0,0-1.94-12.82,10.65,10.65,0,0,0-3-4.1,2.09,2.09,0,0,0-1.56-.55,2.06,2.06,0,0,0-1.15.79,8.5,8.5,0,0,0-1.35,7.4,23.27,23.27,0,0,0,3.4,7c.6.93,1.21,1.86,1.77,2.82.2.34.43,1,.68,1.57-1.82.78-3.68,1.49-5.55,2.15-3.12,1.08-6.3,2-9.49,3l.12-.29a23.77,23.77,0,0,0,1.39-12.89,10.65,10.65,0,0,0-1.83-4.72,2.09,2.09,0,0,0-1.37-.93,2.05,2.05,0,0,0-1.31.47,8.5,8.5,0,0,0-3.19,6.81,23.27,23.27,0,0,0,1.51,7.62c.34,1.06.7,2.11,1,3.18.11.41.18,1.16.28,1.85-2.29.74-4.58,1.5-6.85,2.35a65.84,65.84,0,0,0-7.27,3.24l.12-.3a23.77,23.77,0,0,0,1.39-12.89A10.66,10.66,0,0,0,583.3,388a2.09,2.09,0,0,0-1.37-.93,2.05,2.05,0,0,0-1.31.47,8.5,8.5,0,0,0-3.19,6.81,23.26,23.26,0,0,0,1.51,7.62c.34,1.06.7,2.11,1,3.18.16.58.22,1.83.44,2.64a33.08,33.08,0,0,0-7.4,6.12,28.11,28.11,0,0,0-3.18,4.32c-.25.42-.46.85-.68,1.29a13.12,13.12,0,0,1-.46-1.75c-.45-4.35-1.49-8.39-4.17-11.85a10.66,10.66,0,0,0-3.82-3.32,2.09,2.09,0,0,0-1.64-.19,2.06,2.06,0,0,0-.94,1,8.5,8.5,0,0,0,.35,7.51,23.27,23.27,0,0,0,4.89,6c.8.77,1.6,1.54,2.36,2.35a28.87,28.87,0,0,0,2.4,2.32,9.54,9.54,0,0,0-.54,1.43l-.86,2.52c-.22.86-.38,1.72-.58,2.58l-.28,1.29-.16,1.31-.31,2.61c-.13,1.78-.18,3.56-.19,5.34a8.45,8.45,0,0,1-.84-1.22c-1.87-4-4.23-8.22-7.91-10.59a10.66,10.66,0,0,0-4.71-1.86,2.09,2.09,0,0,0-1.61.37,2.06,2.06,0,0,0-.54,1.28,8.5,8.5,0,0,0,2.84,7,23.27,23.27,0,0,0,6.62,4.05c1,.46,2.37,1.57,3.36,2.07a9.24,9.24,0,0,0,2.77.8h.06c.05,4.56.34,9.11.51,13.63q.09,2.16.09,4.34a14.27,14.27,0,0,1-1.14-1.63c-1.87-4-4.23-8.22-7.91-10.59a10.66,10.66,0,0,0-4.71-1.86,2.09,2.09,0,0,0-1.61.37,2.06,2.06,0,0,0-.55,1.28,8.5,8.5,0,0,0,2.84,7,23.27,23.27,0,0,0,6.62,4.05c1,.46,2.37,1.57,3.36,2.07a9.25,9.25,0,0,0,2.77.8,1.55,1.55,0,0,0,.32,0,43.84,43.84,0,0,1-2.3,14.42A18.63,18.63,0,0,1,562,477.9a12,12,0,0,1-.88-1.6c-1.44-4.13-3.32-8.63-6.72-11.39a10.66,10.66,0,0,0-4.48-2.36,2.09,2.09,0,0,0-1.64.2,2.06,2.06,0,0,0-.68,1.22,8.5,8.5,0,0,0,2.07,7.23,23.27,23.27,0,0,0,6.14,4.75c1,.57,2.19,1.81,3.12,2.42a9.6,9.6,0,0,0,2.28,1,24.38,24.38,0,0,1-2.7,3.66,30.15,30.15,0,0,1-7.66,6.28A52.11,52.11,0,0,1,540,494a6,6,0,0,1,0-1.1c.62-4.33,1-9.19-.76-13.2a10.65,10.65,0,0,0-2.91-4.15,2.09,2.09,0,0,0-1.55-.58,2.06,2.06,0,0,0-1.16.77,8.5,8.5,0,0,0-1.47,7.37,23.27,23.27,0,0,0,3.29,7c.59.94,1.12,2.61,1.66,3.58a7.74,7.74,0,0,0,.67.94c-2,.57-4,1.08-6,1.56-4.92,1.16-9.94,2-15,3.1l.07-.09c2.86-3.32,5.8-7.2,6.48-11.53a10.66,10.66,0,0,0-.21-5.06,2.09,2.09,0,0,0-1-1.32,2.06,2.06,0,0,0-1.39,0,8.5,8.5,0,0,0-5.22,5.42,23.26,23.26,0,0,0-1,7.7c0,1.11-.47,2.8-.53,3.91a8.69,8.69,0,0,0,.1,1.57c-.88.2-1.77.39-2.65.61-3.44.75-6.78,1.88-10.14,2.93-2.85,1.08-5.73,2.11-8.52,3.34a6.4,6.4,0,0,1,.34-1.12c1.86-4,3.66-8.49,3.16-12.84a10.66,10.66,0,0,0-1.56-4.82,2.09,2.09,0,0,0-1.31-1,2.05,2.05,0,0,0-1.34.39,8.5,8.5,0,0,0-3.58,6.62,23.27,23.27,0,0,0,1.08,7.69c.28,1.07.3,2.83.53,3.91a9.67,9.67,0,0,0,.78,2,109.64,109.64,0,0,0-14.31,7.82c1.78-3.84,3.42-8.18,2.93-12.35a10.66,10.66,0,0,0-1.56-4.82,2.09,2.09,0,0,0-1.31-1,2.05,2.05,0,0,0-1.34.39,8.5,8.5,0,0,0-3.58,6.62,23.26,23.26,0,0,0,1.08,7.69c.28,1.07.3,2.83.53,3.91a8.47,8.47,0,0,0,.48,1.41,108,108,0,0,0-15.95,13.46c1.44-3.76,2.62-7.9,1.94-11.79a10.66,10.66,0,0,0-1.84-4.72,2.09,2.09,0,0,0-1.37-.93,2.06,2.06,0,0,0-1.31.47,8.5,8.5,0,0,0-3.19,6.81,23.27,23.27,0,0,0,1.52,7.61c.34,1.06.46,2.81.76,3.87a9.2,9.2,0,0,0,.73,1.69,96.21,96.21,0,0,0-10.51,14.48,85,85,0,0,0-7.88,19.33l.34.11c.57-1.64,1.3-3.21,1.93-4.81l1-2.39,1.16-2.31c1.44-3.13,3.31-6,5-9A97,97,0,0,1,456.75,536a12.25,12.25,0,0,0,1.43,1.33,20.36,20.36,0,0,0,10.18,4.42,9.13,9.13,0,0,0,4.33-.29,1.79,1.79,0,0,0,1.11-.88,1.76,1.76,0,0,0,0-1.19,7.28,7.28,0,0,0-4.75-4.35,19.92,19.92,0,0,0-6.61-.71c-1,0-1.9,0-2.85,0a8.87,8.87,0,0,1-1-.15c.25-.26.49-.52.74-.78a102.66,102.66,0,0,1,15.93-12.8l.57-.36a14.75,14.75,0,0,0,1.1,1.1,20.36,20.36,0,0,0,9.91,5,9.13,9.13,0,0,0,4.34,0,1.79,1.79,0,0,0,1.16-.81,1.76,1.76,0,0,0,0-1.19,7.28,7.28,0,0,0-4.49-4.61,19.93,19.93,0,0,0-6.56-1.09c-.88,0-1.76-.08-2.64-.15a116.54,116.54,0,0,1,14.54-7.59l.08,0c.27.31.54.59.72.78a20.36,20.36,0,0,0,9.58,5.6,9.13,9.13,0,0,0,4.33.22,1.79,1.79,0,0,0,1.21-.74,1.76,1.76,0,0,0,.09-1.19,7.28,7.28,0,0,0-4.2-4.88,19.92,19.92,0,0,0-6.48-1.49l-1-.11c1.7-.67,3.41-1.31,5.11-2,3.25-1,6.48-2.12,9.8-2.92,1.94-.52,3.91-1,5.88-1.43a10.41,10.41,0,0,0,1.33,1.87,20.36,20.36,0,0,0,9.2,6.21,9.13,9.13,0,0,0,4.31.5,1.79,1.79,0,0,0,1.25-.66,1.76,1.76,0,0,0,.17-1.18,7.28,7.28,0,0,0-3.88-5.14,19.93,19.93,0,0,0-6.37-1.9c-.84-.15-1.68-.29-2.52-.46,3.6-.78,7.23-1.55,10.84-2.47,2.23-.56,4.46-1.19,6.67-1.89.27.31.53.58.71.77a20.36,20.36,0,0,0,9.57,5.63,9.13,9.13,0,0,0,4.33.23,1.79,1.79,0,0,0,1.21-.74,1.76,1.76,0,0,0,.1-1.19,7.28,7.28,0,0,0-4.19-4.89,19.92,19.92,0,0,0-6.48-1.5l-.4,0a50.1,50.1,0,0,0,8.18-4.12,30.52,30.52,0,0,0,8.05-7.15,29.71,29.71,0,0,0,3-4.51l.14-.32a10.36,10.36,0,0,0,2.29.26,20.36,20.36,0,0,0,10.77-2.69,9.13,9.13,0,0,0,3.25-2.87,1.79,1.79,0,0,0,.35-1.37,1.76,1.76,0,0,0-.77-.92,7.27,7.27,0,0,0-6.42-.55,19.92,19.92,0,0,0-5.67,3.47c-.75.59-1.49,1.19-2.26,1.74l-.33.2a13.35,13.35,0,0,0,.66-1.92,39.93,39.93,0,0,0,1.76-10.44c0-1.51.07-3,0-4.52a10.26,10.26,0,0,0,2.29.38,20.36,20.36,0,0,0,10.89-2.13,9.13,9.13,0,0,0,3.4-2.7,1.79,1.79,0,0,0,.42-1.35,1.76,1.76,0,0,0-.72-1,7.28,7.28,0,0,0-6.38-.88,19.93,19.93,0,0,0-5.84,3.17c-.78.55-1.55,1.11-2.35,1.62-.37.24-1.15.54-1.75.86,0-1.32-.08-2.64-.15-3.95-.23-4.32-.6-8.64-.68-12.93a9.54,9.54,0,0,0,2.33.75,20.36,20.36,0,0,0,11.08-.69,9.13,9.13,0,0,0,3.72-2.23,1.79,1.79,0,0,0,.59-1.29,1.76,1.76,0,0,0-.59-1,7.28,7.28,0,0,0-6.21-1.71,19.93,19.93,0,0,0-6.21,2.38c-.84.44-1.68.9-2.54,1.3-.47.22-1.54.46-2.19.77,0-2,.06-4,.24-6l.36-2.54.19-1.27.31-1.24c.21-.82.4-1.65.63-2.47l.91-2.37a7.26,7.26,0,0,1,.29-.69,11,11,0,0,0,1.76,1.28,20.36,20.36,0,0,0,10.68,3,9.13,9.13,0,0,0,4.25-.86,1.79,1.79,0,0,0,1-1,1.76,1.76,0,0,0-.21-1.18,7.28,7.28,0,0,0-5.28-3.68,19.93,19.93,0,0,0-6.65.17c-.94.14-1.88.28-2.83.38-.39,0-1.09,0-1.72,0,.35-.63.68-1.27,1.07-1.87a26.23,26.23,0,0,1,3.17-3.88,31.2,31.2,0,0,1,7.36-5.46,13.64,13.64,0,0,0,1.08,1.31,20.36,20.36,0,0,0,9.41,5.89,9.13,9.13,0,0,0,4.32.36,1.79,1.79,0,0,0,1.23-.7,1.76,1.76,0,0,0,.13-1.19,7.28,7.28,0,0,0-4-5,19.93,19.93,0,0,0-6.43-1.68c-.94-.13-1.89-.25-2.82-.42h0a74.35,74.35,0,0,1,7.27-2.87c2.6-.89,5.26-1.7,7.92-2.5.22.27.43.5.58.67a20.36,20.36,0,0,0,9.41,5.89,9.13,9.13,0,0,0,4.32.36,1.79,1.79,0,0,0,1.23-.7,1.76,1.76,0,0,0,.13-1.19,7.28,7.28,0,0,0-4-5,19.5,19.5,0,0,0-6.27-1.66c2.18-.68,4.35-1.37,6.52-2.16s4.6-1.76,6.85-2.81a11.57,11.57,0,0,0,1.76,1.1,20.36,20.36,0,0,0,10.85,2.34,9.13,9.13,0,0,0,4.19-1.14,1.79,1.79,0,0,0,.92-1.08,1.76,1.76,0,0,0-.28-1.16,7.28,7.28,0,0,0-5.51-3.33,19.92,19.92,0,0,0-6.62.6l-.46.09a35.78,35.78,0,0,0,6.74-5.19,29.52,29.52,0,0,0,4.22-5.23,12.36,12.36,0,0,0,1.76.79,20.36,20.36,0,0,0,11.06.92,9.13,9.13,0,0,0,4-1.67,1.79,1.79,0,0,0,.77-1.19A1.76,1.76,0,0,0,651.52,381.17Z"/><ellipse class="cls-51" cx="94.36" cy="604.44" rx="50.02" ry="9.25"/><path class="cls-52" d="M143.42,542.69c-17.13,4.88-27.78,23.52-30.77,39.94-.07.4.52.57.61.17,2-8.51,4.95-16.71,10.17-23.82a42.82,42.82,0,0,1,8.46-8.6H132c.85,1.37,2.88,1.2,4.27,1.07a.24.24,0,0,0,.24-.24,2.25,2.25,0,0,0-1.45-2.1,2.56,2.56,0,0,0-1.33,0,73.73,73.73,0,0,1,10-5.82C144,543.08,143.74,542.59,143.42,542.69Zm-7.49,8.3a6.38,6.38,0,0,1-3.87-.66,6.19,6.19,0,0,1,2.05-.76A1.66,1.66,0,0,1,135.93,551Z"/><path class="cls-52" d="M148.95,540.62a2,2,0,0,0-3-.58,1.77,1.77,0,0,0,.44,3,1.89,1.89,0,0,0,.61.19,1.52,1.52,0,0,0,1.44-.44l.06-.06A2,2,0,0,0,148.95,540.62Zm-2.31.84a.45.45,0,0,1,.61-.44s-.08.06-.09.11a1,1,0,0,0,.07.94,1.13,1.13,0,0,1-.47-.18A.8.8,0,0,1,146.64,541.45Z"/><path class="cls-52" d="M144.27,539.72a3,3,0,0,0-1.07-.2.19.19,0,0,0-.09.34,3.18,3.18,0,0,0,1.11.3C144.48,540.2,144.49,539.79,144.27,539.72Z"/><path class="cls-52" d="M146.49,538.5a1.76,1.76,0,0,0-.27-1.08.13.13,0,0,0-.24,0,1.68,1.68,0,0,0,0,1.11A.24.24,0,0,0,146.49,538.5Z"/><path class="cls-52" d="M150,538.06c.07-.1,0-.19-.14-.18a.74.74,0,0,0-.69.91,0,0,0,0,0,.06,0A2.36,2.36,0,0,0,150,538.06Z"/><path class="cls-52" d="M151.78,540.95a1.14,1.14,0,0,0-1.19-.12.2.2,0,0,0,0,.37,1.14,1.14,0,0,0,1.18.22A.26.26,0,0,0,151.78,540.95Z"/><path class="cls-52" d="M149.73,543.69c-.08,0-.18.06-.15.15a2.14,2.14,0,0,0,.69,1.05.09.09,0,0,0,.13-.05C150.63,544.29,150.26,543.85,149.73,543.69Z"/><path class="cls-52" d="M146.9,545.6c0,.06,0,.11.1.1.45-.09.58-.36.46-.79a.06.06,0,0,0-.1,0A2.23,2.23,0,0,0,146.9,545.6Z"/><path class="cls-52" d="M144.54,544.12c-.24.12,0,.5.21.37a1.71,1.71,0,0,0,.63-.48.1.1,0,0,0-.09-.16A1.73,1.73,0,0,0,144.54,544.12Z"/><path class="cls-52" d="M143.19,541.7c-.18,0-.32.25-.16.39a.81.81,0,0,0,1.18.07.23.23,0,0,0-.11-.42A3.9,3.9,0,0,0,143.19,541.7Z"/><path class="cls-52" d="M122.5,557.82a0,0,0,0,0,.06,0c0-.06,0-.11-.05-.17a.2.2,0,0,0,.23,0c.83-.75.8-2.39.63-3.41-.08-.5-.36-2.2-1.25-2s-.74,1.8-.74,2.37A4.4,4.4,0,0,0,122.5,557.82Zm-.51-4.72q0-.51.55.17a5.35,5.35,0,0,1,.24,2.07c0,.66-.34,1.28-.37,1.93a13.91,13.91,0,0,1-.48-1.58C121.85,555.28,121.59,553.44,122,553.11Z"/><path class="cls-52" d="M113.76,544.8a.26.26,0,0,0-.31-.4c-12.79,8.29-17,25.55-15.6,39.83,0,.34.56.35.54,0-.61-11.74,1.66-21.92,7.7-30.74,1,.72,2.5.17,3.56-.25a.21.21,0,0,0,.14-.25,1.92,1.92,0,0,0-1.61-1.36,1.89,1.89,0,0,0-.83.12A49.92,49.92,0,0,1,113.76,544.8Zm-6.47,7.51c.44-.23,2.26-.31,1.91.69-.08.22-1.24.42-1.46.46a4.19,4.19,0,0,1-1.56-.1l.39-.55A4.16,4.16,0,0,1,107.29,552.31Z"/><path class="cls-52" d="M116,544a1.39,1.39,0,0,0,.21,0,1.17,1.17,0,0,0,.39,0s.06,0,.1-.05a1.33,1.33,0,0,0,.3-.16,1.3,1.3,0,0,0,.35-.25,1.37,1.37,0,0,0,.11-.19,1.64,1.64,0,0,0,0-1.9,1.72,1.72,0,0,0-2.65.34A1.52,1.52,0,0,0,116,544Zm-.1-1.07-.05-.1c-.19-.44,0-.66.27-.7a.28.28,0,0,0,0,.12.94.94,0,0,0,.3.76.84.84,0,0,1-.4,0Z"/><path class="cls-52" d="M113.49,542.16c.23,0,.15-.37-.05-.38a2.52,2.52,0,0,0-.92.09c-.14,0-.16.27,0,.3A2.7,2.7,0,0,0,113.49,542.16Z"/><path class="cls-52" d="M115,540.27a1.49,1.49,0,0,0-.47-.82.11.11,0,0,0-.19.08,1.41,1.41,0,0,0,.29.89A.2.2,0,0,0,115,540.27Z"/><path class="cls-52" d="M117.23,539.88a3.57,3.57,0,0,0,.43-.77c0-.09,0-.2-.14-.14-.37.24-.5.46-.35.9A0,0,0,0,0,117.23,539.88Z"/><path class="cls-52" d="M119.9,541.4a.22.22,0,0,0-.05-.39,1,1,0,0,0-1,.21c-.11.09,0,.24.08.29A1,1,0,0,0,119.9,541.4Z"/><path class="cls-52" d="M119.55,544.57a.08.08,0,0,0,.09-.07c.06-.5-.35-.77-.82-.78a.1.1,0,0,0-.07.17A1.74,1.74,0,0,0,119.55,544.57Z"/><path class="cls-52" d="M117.18,545.25a1.9,1.9,0,0,0-.2.7.07.07,0,0,0,.1.06.46.46,0,0,0,.19-.76A0,0,0,0,0,117.18,545.25Z"/><path class="cls-52" d="M114.7,545.3c-.17.16.09.42.25.25a1.45,1.45,0,0,0,.4-.54.08.08,0,0,0-.11-.11A1.46,1.46,0,0,0,114.7,545.3Z"/><path class="cls-52" d="M113,544a.71.71,0,0,0,1-.26c.11-.15-.08-.31-.22-.28a3.31,3.31,0,0,0-.74.19C112.89,543.7,112.82,543.92,113,544Z"/><path class="cls-52" d="M98.38,557.18c-.59.3-.23,1.55-.1,2a3.84,3.84,0,0,0,1.71,2.5,0,0,0,0,0,0,0l-.08-.13a.16.16,0,0,0,.18-.07,3.43,3.43,0,0,0-.25-2.83C99.69,558.19,99.07,556.83,98.38,557.18Zm1.42,4.1A11.4,11.4,0,0,1,99,560c-.11-.22-.8-2-.51-2.16C99.52,557.34,99.67,560.56,99.8,561.28Z"/><path class="cls-52" d="M82.4,556.73A43.2,43.2,0,0,1,87,536.42c.21-.42,4.55-7.91,5.41-6,.05.12.24.05.24-.06s0-.51,0-.77a.29.29,0,0,0-.15-.25c-2.67-1.38-4.46,3.38-5.44,5.17a43.37,43.37,0,0,0,5.38,49.64c.3.35.79-.15.5-.5A43.58,43.58,0,0,1,82.4,556.73Z"/><path class="cls-52" d="M99.54,525.56a2.11,2.11,0,0,0-1.85-2.42c-2.83-.44-3.27,4-.77,4.68C98.36,528.21,99.42,526.88,99.54,525.56Zm-1.86.45a.39.39,0,0,0,.14,0,1.06,1.06,0,0,0,.7-1.11l0-.07,0,0a1.07,1.07,0,0,1-.8,1.24S97.71,526.06,97.68,526Z"/><path class="cls-52" d="M95,522.28c.28,0,.34-.32.21-.5l-.16-.2c-.4-.51-1.12.59-.28.67Z"/><path class="cls-52" d="M97.9,521.84a1.18,1.18,0,0,0,.56-1.35.43.43,0,0,0-.78-.1,2.82,2.82,0,0,0-.35,1C97.29,521.7,97.6,522.05,97.9,521.84Z"/><path class="cls-52" d="M100.66,523.53a1,1,0,0,0,.61-.09.32.32,0,0,0,.14-.52.68.68,0,0,0-.85-.19A.41.41,0,0,0,100.66,523.53Z"/><path class="cls-52" d="M99.35,531.55a1.2,1.2,0,0,0-.1-1.39.12.12,0,0,0-.2,0,1.2,1.2,0,0,0,0,1.39A.18.18,0,0,0,99.35,531.55Z"/><path class="cls-52" d="M95.64,529.15a.24.24,0,0,0-.38,0c-.23.24-.35.54-.6.77a.28.28,0,0,0,.2.47.94.94,0,0,0,.91-.6.41.41,0,0,0,0-.41Z"/><path class="cls-52" d="M93.32,525.36a1.68,1.68,0,0,0-1,0c-.29,0-.22.44,0,.52a1.35,1.35,0,0,0,.88.12A.31.31,0,0,0,93.32,525.36Z"/><path class="cls-52" d="M75.62,552.9a.31.31,0,0,0-.38.38,8.2,8.2,0,0,0,5.74,6.8,0,0,0,0,0,0-.05,10.5,10.5,0,0,1-5-6.36,6.77,6.77,0,0,1,4.29,4.22,5,5,0,0,0,.52,1.48.25.25,0,0,0,.45-.06c.44-1.23-.76-3-1.52-3.92A7.61,7.61,0,0,0,75.62,552.9Z"/><path class="cls-52" d="M84.49,547.44a.56.56,0,0,0,.3,1.07,5.1,5.1,0,0,0,4.12-5.18.49.49,0,0,0-.73-.42,9.74,9.74,0,0,0-3.1,1.95c-.55.55-1.59,1.67-1.29,2.51a.05.05,0,0,0,.07,0c.69-.33,1-1.4,1.57-2A5.2,5.2,0,0,1,87.79,544,4.56,4.56,0,0,1,84.49,547.44Z"/><path class="cls-52" d="M101.45,528a1.94,1.94,0,0,0,.87.63c.33.11.52-.27.41-.53a1.79,1.79,0,0,0-.65-.73C101.64,527,101,527.58,101.45,528Z"/><path class="cls-53" d="M67.07,604.3c17.31.2,34.64-1,51.91.15a7,7,0,0,0,2.83-.2,6.71,6.71,0,0,0,2-1.32c4.15-3.54,8.71-7,12-11.4s3.66-5.5,3.87-8.06c.26-3.09-1.6-3.82-2.32-4.15a6.59,6.59,0,0,0-3.48.12c-4.27,2.12-6.66,5.24-9.9,11.68a15.52,15.52,0,0,0-1-16.85c-1-1.35-2.56-2.61-4.22-2.28a4.91,4.91,0,0,0-2.91,2.59A27,27,0,0,0,112,588.48a34,34,0,0,0-.88-13.6,15.42,15.42,0,0,0-4-7.42c-2.09-1.93-5.28-2.88-7.88-1.71s-4,4.22-4.36,7.11.18,5.81.13,8.72a21.83,21.83,0,0,0-4.9-10.52,8.28,8.28,0,0,0-3-2.43,3.75,3.75,0,0,0-3.73.36,5,5,0,0,0-1.48,3.11,17.47,17.47,0,0,0,2,11.48c-2.1-3.43-4.25-6.91-7.27-9.57s-7.09-4.41-11.05-3.72a4.69,4.69,0,0,0-3,1.58,4.8,4.8,0,0,0-.76,2.92,15,15,0,0,0,3.54,9,37.88,37.88,0,0,0,7.33,6.61,18.12,18.12,0,0,0-7.41-3.93c-4.29-1.37-9.52-2.09-12.85.95a4.9,4.9,0,0,0-1.59,5.13,6.12,6.12,0,0,0,1.5,2.07,20.67,20.67,0,0,0,7,4.55,6.46,6.46,0,0,0-2.58-.32,2.2,2.2,0,0,0-1.9,1.57c-.25,1.25,1,2.28,2.14,2.79C59.65,604.47,65.44,604.28,67.07,604.3Z"/><path class="cls-54" d="M504.14,84.8A7.6,7.6,0,0,1,512,92.65v17.44a7.82,7.82,0,0,1-7.85,7.86H490.83a6.11,6.11,0,0,0-3.79,1.58l-8.65,8.77c-.86.87-1.75.6-2-.6L475,120.13a2.61,2.61,0,0,0-2.3-2.19h-1.88a7.54,7.54,0,0,1-7.85-7.86V92.65a7.46,7.46,0,0,1,7.85-7.85Z"/><path class="cls-3" d="M473.58,96.06l1.32,2.68a.35.35,0,0,0,.26.19l3,.43a.35.35,0,0,1,.19.59L476.17,102a.35.35,0,0,0-.1.31l.5,2.94a.35.35,0,0,1-.5.37l-2.64-1.39a.35.35,0,0,0-.32,0l-2.64,1.39a.35.35,0,0,1-.5-.37l.5-2.94a.35.35,0,0,0-.1-.31L468.22,100a.35.35,0,0,1,.19-.59l3-.43a.35.35,0,0,0,.26-.19L473,96.06A.35.35,0,0,1,473.58,96.06Z"/><path class="cls-3" d="M488.06,96.06l1.32,2.68a.35.35,0,0,0,.26.19l3,.43a.35.35,0,0,1,.19.59L490.65,102a.35.35,0,0,0-.1.31l.5,2.94a.35.35,0,0,1-.5.37l-2.64-1.39a.35.35,0,0,0-.32,0l-2.64,1.39a.35.35,0,0,1-.5-.37l.5-2.94a.35.35,0,0,0-.1-.31L482.71,100a.35.35,0,0,1,.19-.59l3-.43a.35.35,0,0,0,.26-.19l1.32-2.68A.35.35,0,0,1,488.06,96.06Z"/><path class="cls-3" d="M502.55,96.06l1.32,2.68a.35.35,0,0,0,.26.19l3,.43a.35.35,0,0,1,.19.59L505.14,102a.35.35,0,0,0-.1.31l.5,2.94a.35.35,0,0,1-.5.37l-2.64-1.39a.35.35,0,0,0-.32,0l-2.64,1.39a.35.35,0,0,1-.5-.37l.5-2.94a.35.35,0,0,0-.1-.31L497.19,100a.35.35,0,0,1,.19-.59l3-.43a.35.35,0,0,0,.26-.19l1.32-2.68A.35.35,0,0,1,502.55,96.06Z"/><ellipse class="cls-51" cx="398.39" cy="599.39" rx="126.61" ry="28.43"/><path class="cls-55" d="M517.49,387.62a157,157,0,0,0,45.45-110.52c-.12-90.29-76.77-162.67-168.88-162.67-90.41,0-155.72,67.38-166.08,139.76-6.46,48.25,9.14,95.29,41.55,130.87,28.51,30.46,44.11,71.16,44.11,113.08V502h162.3v-3.9C475.94,455,490.2,415.53,517.49,387.62Z"/><path class="cls-56" d="M312,474.66s31.39,10,82.74,10,82.65-10,82.65-10-4.8,98.91-5.08,106.29c-.35,9.24-46.76,20.84-72.23,20.84-38,0-82.76-11-84-19.4S312,474.66,312,474.66Z"/><path class="cls-3" d="M431.6,455h-.21a3.42,3.42,0,0,1-3.2-3.63l5-81.63a3.4,3.4,0,0,1,.16-.86c1.5-4.59,8.24-25,16.3-47.42h-1.16c-15.44-.06-29.51-5.41-35.85-13.64-5.28-6.86-7.33-14-9-19.75-2.22-7.75-3.29-10.35-7.25-10.77h-3.52c-4,.43-5,3-7.25,10.77-1.64,5.74-3.69,12.89-9,19.75-6.33,8.23-20.4,13.59-35.84,13.64h-1.16c8.06,22.42,14.8,42.83,16.3,47.42a3.46,3.46,0,0,1,.16.86l5,81.63a3.42,3.42,0,0,1-6.83.42l-5-81.19c-4.86-14.82-11-32.64-17.15-49.67a59,59,0,0,1-39.27-22c-15.27-19.55-12.47-37-3.41-44.86,6.5-5.66,15.15-5.38,21,.68,6,6.23,17,33.41,26.61,59.79,1.31.08,2.52.09,3.65.1,13,0,25.51-4.56,30.44-11,4.49-5.83,6.26-12,7.82-17.46,2.09-7.31,4.26-14.87,13.34-15.72h4.5c9.08.85,11.24,8.41,13.34,15.72,1.56,5.45,3.33,11.63,7.82,17.46,4.93,6.41,17.45,10.92,30.44,11,1.13,0,2.34,0,3.65-.1,9.65-26.38,20.56-53.56,26.61-59.79,5.89-6.06,14.54-6.35,21-.68,9.06,7.9,11.86,25.3-3.41,44.86-12,15.43-27.65,20.55-39.27,22-6.18,17-12.29,34.85-17.15,49.67l-5,81.19A3.42,3.42,0,0,1,431.6,455Zm57.88-198.16a7.91,7.91,0,0,0-5.76,2.65c-4.66,4.81-14.14,27.77-23.86,54.08A50.88,50.88,0,0,0,491,294.65c12.53-16,11-29.64,4.31-35.48A9.16,9.16,0,0,0,489.48,256.81Zm-189.56,0a9.15,9.15,0,0,0-5.87,2.36c-6.71,5.84-8.22,19.44,4.31,35.48a50.88,50.88,0,0,0,31.18,18.88c-9.72-26.31-19.2-49.27-23.86-54.08A7.91,7.91,0,0,0,299.92,256.81Z"/><g class="cls-57"><path class="cls-3" d="M321.37,491.21a127.14,127.14,0,0,0,17.86,4.53c6,1.19,12.09,2.07,18.18,2.73a341,341,0,0,0,36.69,1.9,345.6,345.6,0,0,0,36.7-1.87c6.09-.65,12.17-1.51,18.18-2.7a119.26,119.26,0,0,0,17.84-4.6,62.47,62.47,0,0,1-8.57,3.55c-2.92,1-5.89,1.91-8.88,2.76-6,1.56-12.09,2.74-18.22,3.73A251.66,251.66,0,0,1,357,501.2C344.84,499.21,332.58,496.48,321.37,491.21Z"/><path class="cls-3" d="M321.37,511.26a127.14,127.14,0,0,0,17.86,4.53c6,1.19,12.09,2.07,18.18,2.73a341,341,0,0,0,36.69,1.9,345.6,345.6,0,0,0,36.7-1.87c6.09-.65,12.17-1.51,18.18-2.7a119.26,119.26,0,0,0,17.84-4.6,62.5,62.5,0,0,1-8.57,3.55c-2.92,1-5.89,1.91-8.88,2.76-6,1.56-12.09,2.74-18.22,3.73a251.66,251.66,0,0,1-74.12-.05C344.84,519.26,332.58,516.54,321.37,511.26Z"/><path class="cls-3" d="M321.37,531.32a127.14,127.14,0,0,0,17.86,4.53c6,1.19,12.09,2.07,18.18,2.73a341,341,0,0,0,36.69,1.9,345.6,345.6,0,0,0,36.7-1.87c6.09-.65,12.17-1.51,18.18-2.7a119.26,119.26,0,0,0,17.84-4.6,62.5,62.5,0,0,1-8.57,3.55c-2.92,1-5.89,1.91-8.88,2.76-6,1.56-12.09,2.74-18.22,3.73a251.66,251.66,0,0,1-74.12-.05C344.84,539.32,332.58,536.59,321.37,531.32Z"/><path class="cls-3" d="M321.37,551.38a127.14,127.14,0,0,0,17.86,4.53c6,1.19,12.09,2.07,18.18,2.73a341,341,0,0,0,36.69,1.9,345.6,345.6,0,0,0,36.7-1.87C436.89,558,443,557.17,449,556a119.26,119.26,0,0,0,17.84-4.6,62.5,62.5,0,0,1-8.57,3.55c-2.92,1-5.89,1.91-8.88,2.76-6,1.56-12.09,2.74-18.22,3.73a251.66,251.66,0,0,1-74.12-.05C344.84,559.37,332.58,556.65,321.37,551.38Z"/><path class="cls-3" d="M321.37,571.43A127.14,127.14,0,0,0,339.23,576c6,1.19,12.09,2.07,18.18,2.73a341,341,0,0,0,36.69,1.9,345.6,345.6,0,0,0,36.7-1.87c6.09-.65,12.17-1.51,18.18-2.7a119.26,119.26,0,0,0,17.84-4.6,62.5,62.5,0,0,1-8.57,3.55c-2.92,1-5.89,1.91-8.88,2.76-6,1.56-12.09,2.74-18.22,3.73a251.66,251.66,0,0,1-74.12-.05C344.84,579.43,332.58,576.71,321.37,571.43Z"/></g><ellipse class="cls-58" cx="446.09" cy="279.67" rx="93.02" ry="96.47"/><g class="cls-59"><path class="cls-60" d="M498.32,604.14c-13.3-.14-26.6-1.32-39.89-.76a5.39,5.39,0,0,1-2.17-.2,5.17,5.17,0,0,1-1.52-1c-3.13-2.79-6.58-5.56-9-9s-2.72-4.29-2.84-6.26a2.76,2.76,0,0,1,1.85-3.15,5.07,5.07,0,0,1,2.67.15c3.25,1.7,5,4.14,7.41,9.14a11.93,11.93,0,0,1,1-12.93c.81-1,2-2,3.28-1.68a3.78,3.78,0,0,1,2.19,2A20.72,20.72,0,0,1,464,591.22a26.11,26.11,0,0,1,.9-10.43,11.85,11.85,0,0,1,3.2-5.63,5.76,5.76,0,0,1,6.08-1.18c2,1,3,3.31,3.23,5.54s-.23,4.46-.25,6.7a16.78,16.78,0,0,1,3.94-8,6.36,6.36,0,0,1,2.37-1.82,2.88,2.88,0,0,1,2.86.34,3.84,3.84,0,0,1,1.09,2.42,13.43,13.43,0,0,1-1.71,8.79,31.14,31.14,0,0,1,5.75-7.23c2.36-2,5.52-3.27,8.56-2.67a3.6,3.6,0,0,1,2.3,1.27,3.68,3.68,0,0,1,.54,2.26,11.51,11.51,0,0,1-2.87,6.89,29.12,29.12,0,0,1-5.74,5,13.93,13.93,0,0,1,5.76-2.9c3.32-1,7.35-1.45,9.86.95a3.76,3.76,0,0,1,1.13,4,4.71,4.71,0,0,1-1.19,1.57,15.88,15.88,0,0,1-5.43,3.38,5,5,0,0,1,2-.2,1.69,1.69,0,0,1,1.43,1.24c.17,1-.79,1.74-1.69,2.11C504,604.39,499.57,604.15,498.32,604.14Z"/><path class="cls-60" d="M303.76,608.31c13.41-.14,26.82-1.34,40.22-.77a5.43,5.43,0,0,0,2.19-.2,5.2,5.2,0,0,0,1.53-1.06c3.15-2.81,6.63-5.6,9.11-9s2.74-4.32,2.86-6.31a2.79,2.79,0,0,0-1.86-3.17,5.11,5.11,0,0,0-2.7.15c-3.27,1.72-5.07,4.17-7.47,9.22a12,12,0,0,0-1-13c-.81-1-2-2-3.31-1.7a3.81,3.81,0,0,0-2.21,2.05,20.89,20.89,0,0,0-2.75,10.84,26.32,26.32,0,0,0-.91-10.52,12,12,0,0,0-3.23-5.68,5.8,5.8,0,0,0-6.13-1.19c-2,1-3.05,3.34-3.26,5.58s.24,4.5.25,6.76a16.92,16.92,0,0,0-4-8.07,6.41,6.41,0,0,0-2.39-1.83,2.91,2.91,0,0,0-2.88.34,3.87,3.87,0,0,0-1.1,2.44,13.54,13.54,0,0,0,1.72,8.86,31.4,31.4,0,0,0-5.8-7.29c-2.38-2-5.57-3.3-8.63-2.69a3.63,3.63,0,0,0-2.31,1.28,3.72,3.72,0,0,0-.54,2.28,11.6,11.6,0,0,0,2.89,6.95,29.36,29.36,0,0,0,5.79,5,14,14,0,0,0-5.81-2.92c-3.35-1-7.41-1.46-9.94,1a3.79,3.79,0,0,0-1.14,4,4.74,4.74,0,0,0,1.2,1.58,16,16,0,0,0,5.47,3.41,5,5,0,0,0-2-.21,1.71,1.71,0,0,0-1.44,1.25c-.17,1,.79,1.75,1.7,2.13C298,608.57,302.5,608.32,303.76,608.31Z"/></g><ellipse class="cls-51" cx="393.12" cy="146.67" rx="56.39" ry="32.33"/><path class="cls-61" d="M505.88,211.57c1.17-.54,2.86-.7,4-1.28,1.41-.71,3.13-2.56,3-3.93-.47-.89-.84-1-1.71-.49a15.89,15.89,0,0,1-2.89,1.27,12.71,12.71,0,0,1-4.5.75,6.34,6.34,0,0,1-3.73-1.07c-1.24-.93-1.8-2.81-3.32-3.13-.85-.18-3.4,2.56-3.83,3.16.95,1.65,2.81,2.33,4.14,3.62s1.22,3.13,3.64,4C502.7,214.29,503.77,212.55,505.88,211.57Z"/><path class="cls-62" d="M508.51,207.08c-.51.17-1.1.33-1.72.47a4.8,4.8,0,0,1-1.29,1.81,10.73,10.73,0,0,1-7.75,2.49c.62,1.1,1,2.22,2.84,2.86,2.13-.19,3.25-2,5.44-3,1.21-.56,3-.73,4.17-1.34,1.47-.74,3.27-2.67,3.1-4.1-.49-.93-.87-1-1.78-.51A16.54,16.54,0,0,1,508.51,207.08Z"/><path class="cls-62" d="M487,184q-7.22-11.73-15.21-23c-2.66-3.74-6.46-7.69-10.58-9.83-1.56-.81-3.09-1.69-4.64-2.53q-5-2.67-10-5.2c-6.76-3.41-13.58-6.67-20.45-9.84-7.31-3.38-14.67-6.65-22-9.9-1.9-.84-4-1.68-6-1.17-2.66.68-4.15,3.44-5.27,6-2.19,5-6.11,5.64-7.81,10.79,10.25,11,28.09,17.95,43.52,21,8,1.58,17.27,4.33,24.8,5.44,1,5.7,4.54,11,8.34,15.51,3.17,3.78,24.62,24.18,33.71,28l.81-.18a12.41,12.41,0,0,0,3.35-2.57C499.19,200.92,489,187.25,487,184Z"/><path class="cls-61" d="M451.07,251c1.28-.11,2.93.3,4.2.15,1.57-.19,3.82-1.35,4.13-2.7-.14-1-.46-1.2-1.45-1a15.9,15.9,0,0,1-3.15.22,12.71,12.71,0,0,1-4.49-.81,6.34,6.34,0,0,1-3.15-2.27c-.85-1.29-.75-3.25-2.06-4.07-.74-.46-4.07,1.26-4.68,1.67.33,1.87,1.85,3.14,2.67,4.81s.09,3.36,2.07,5C447.16,252.49,448.76,251.22,451.07,251Z"/><path class="cls-56" d="M455.07,247.67c-.53,0-1.15-.06-1.78-.14a4.8,4.8,0,0,1-1.83,1.27,10.73,10.73,0,0,1-8.14-.28c.21,1.24.24,2.44,1.7,3.66,2.07.54,3.73-.79,6.14-1,1.33-.12,3,.32,4.38.15,1.64-.2,4-1.41,4.3-2.81-.15-1-.48-1.25-1.51-1.08A16.56,16.56,0,0,1,455.07,247.67Z"/><path class="cls-56" d="M442.68,218.63q-2.82-13.48-6.54-26.75c-.82-2.93-1.71-5.94-3.57-8.35l-.2-.24a4.36,4.36,0,0,0-.79-1.54c-11.21-13.55-23.63-26.59-36.12-39.2l.33-.09a3.17,3.17,0,0,1-.89-2.88c2.15-6.45,6.25-12.72,7.07-17.63-4.16,2.37-7.63,2.42-13.87,2.15-7.39-.32-14.51-.55-21.55-2.66-10.82,26.4,15.48,51.16,29.3,58.34,5.71,3,14.3,7.33,21.22,10.79-.78,5.57.72,11.52,2.7,16.91,1.7,4.63,15,31.08,22.24,37.75l.83.1a12.41,12.41,0,0,0,4-1.29C448.38,238.72,443.47,222.42,442.68,218.63Z"/><path class="cls-61" d="M443.4,3.26A4.12,4.12,0,0,0,445.22,0c-2.37,1.56-5.89,2.85-7.11,5.41-.77,1.61-1,3.43-1.64,5.09a37.42,37.42,0,0,0-4.2,5.44C429,21,422.44,27.39,417.78,39.6a11.25,11.25,0,0,0-.66,2.82c-1.41.85-2.75,1.81-3.94,2.55-7.29,4.52-13.12,9.19-20.15,12.91-4.58,2.43-9.5,5.2-11.52,10,2.74,3.41,7.59,4.07,12,4.44q4.65.4,9.31.74a4.94,4.94,0,0,0,2.41-.23,7.58,7.58,0,0,0,1.57-1.35c9.92-8.4,12.67-12.58,18.77-23.62,2-1.62,3.52-4.23,4.89-6.79,4-7.43,5-12.55,7.81-21.44a39.09,39.09,0,0,0,1.11-4.84c1.11-3,2.65-5.85,5.22-7.67,2.16-1.53,4.83-2.15,7.1-3.49C452.13.76,445.91,1.78,443.4,3.26Z"/><path class="cls-61" d="M361.28,57.05c-7.89-1-15-3.27-23.42-4.9-1.37-.27-3-.69-4.59-1a11.24,11.24,0,0,0-1.62-2.4c-8.7-9.76-17.11-13.39-21.95-17a44,44,0,0,0-4.82-3.08h0c-1.47-1.38-3.07-2.89-4.53-4.29-2.05-2-5.64-2.31-8.41-2.92a4.12,4.12,0,0,0,2.86,2.4c-2.87-.49-9,.76-7.61,3.25,2.61.45,5.32.08,7.88.74a15.16,15.16,0,0,1,7.16,4.82,16.64,16.64,0,0,0,1.17,2.41c4.43,7.71,10.61,13.94,17,19.48,2.19,1.91,4.54,3.81,7,4.61C337,67.36,341,70.3,353.27,74.62a7.58,7.58,0,0,0,1.95.7,4.94,4.94,0,0,0,2.34-.65q4.23-2,8.44-4c3.95-1.9,8.25-4.24,9.6-8.4C372,58.54,366.43,57.69,361.28,57.05Z"/><path class="cls-63" d="M405.32,72.94c3.18-2,10.76-7.52,10.76-7.52L414.8,64a66.46,66.46,0,0,1-4.65-9.4C408.49,50.12,408,48,408,48s-16.56,4.7-17.65,4.86a36.39,36.39,0,0,0-6.46,3.27c-5.34-1-11.47-1.37-16.39,0a19,19,0,0,0-3.29-.85c-1.1,0-18.22-1.83-18.22-1.83s-.16,2.14-1.05,6.83a66.46,66.46,0,0,1-3,10.05l-1,1.62s8.56,2.92,12,4.4c3,1.26,4.6,2.31,7.08,3.37,1,4.41,2.26,8.71,2.93,12.12.18.92.4,1.83.59,2.75l.06.48s.05,20.83-1.15,24.59,6.66,8.44,22.61,9.81,19.61-7.93,19.61-7.93A229.35,229.35,0,0,1,402,89.49h0a79.45,79.45,0,0,0-.6-11.75A12.61,12.61,0,0,1,405.32,72.94Z"/><path class="cls-61" d="M393.12,38.76a.93.93,0,0,0-.18-.49L391,35.08c-.17-.28-.34-.58-.52-.86a28.69,28.69,0,0,0-1.7-6.59c-1.49-3.62-4.23-6.92-7.95-8.14a11.91,11.91,0,0,0-11.79,3.14,16.45,16.45,0,0,0-4.46,11.68c0,4.56,1.73,9.23,5.22,12.17,1.28,1.08,2.76,1.9,4,3s1.18,2.92,1,4.58c-.11.9-2.22,2.12-2.23,3-.07,5.3,16,5.81,13.42.43-1-2.14-2.51-3.38-2.4-6.11.21-5.19,4-2,6.71-3.7,1.43-.9,1.43-3,1.26-4.64l-.3-2.88a3.65,3.65,0,0,0,1.65-1A.79.79,0,0,0,393.12,38.76Z"/><path class="cls-62" d="M371.6,36.56c-1.14-2.21-1.74-6.25-.75-8.54a7.35,7.35,0,0,1,5-4,13.89,13.89,0,0,1,6.46.21c2.47.57,5,1.46,7.46.81,2.6-.69,4.68-5.05,4.9-7.9a6.86,6.86,0,0,0-4-6.76,6,6,0,0,0-7.09,2.45,4.84,4.84,0,0,0-7.27-1.61c-1.38,1.2-2.07,3.15-3.5,4.29-2,1.57-4.8,1.18-7,2.41-1.74,1-3.62,4.21-4.34,6.18-2.87,7.77.61,19.2,6.88,24.18,1.86,1.47,4.37,2.57,6.45,1.47,1.13-.83.64-2.83-.43-3.73s-2.49-1.19-3.66-1.95-2.06-2.46-1.27-3.65,2.2-1,3.27-.38,1.86,1.4,2.93,1.86C374.31,40.11,372.66,38.62,371.6,36.56Z"/><ellipse class="cls-51" cx="616.33" cy="642.17" rx="52.16" ry="11.71"/><path class="cls-62" d="M514,490.51c-3.74-2.59-8-1.7-10.69,2.18a8.18,8.18,0,0,0-1,7.47l-2.51-1.64c-1.07-.74-2.83-.85-3.47.08L483.57,517c-.64.93.07,2.53,1.14,3.27l5.83,4.34-16.33,4.88c-.88-1.37-1.84-2.13-2.57-1.85-1.06.4-1.1,2.84-.13,5.44s2.63,4.39,3.69,4c.81-.3,1-1.79.67-3.64l25-1.1,6.49,4.87a2,2,0,0,0,2.94-.44l13.94-20.11a2,2,0,0,0-.61-2.91l-3.6-2.3a31.71,31.71,0,0,1-.92-8.31C519,498.39,518.88,493.89,514,490.51Zm3.4,19.3-11-7.08c-1.52-2-3.38-5.41-1.1-8.7,2-2.84,4.76-3.42,7.46-1.55,3.9,2.7,4,6.29,4.14,10.84A44.12,44.12,0,0,0,517.4,509.82Z"/><path class="cls-64" d="M532.59,495.46c-3.5,1.2-7,1.91-10.66.36-2.44-1-5.19-1.7-6.29.95-.6,2.7,1,1.79,3.74,2.9.75.75-3.51,2.14-2.89,3.9,3.61-.81,4.7-1.47,7.48-2,2-.4,3.74-1.56,5.71-1.95,3.05-.61,6.14.66,9.24.95a14.87,14.87,0,0,0,9.23-2.21c4.44-2.8-1.1-6-4.17-6.13C540.26,492,536,494.28,532.59,495.46Z"/><path class="cls-62" d="M585.42,465.83q-1.65-4.37-3.35-8.72c-1.6-4.08-3.61-8.54-7.66-10.2-4,3.3-5.26,8.8-6.29,13.88-1.57,7.8-4.39,14.71-6.64,23-.27,1-.65,2.13-1,3.29h-.42c-13,1-21,5.56-26.77,7.26-2.84.83-6.93,1.87-7,2.5a3.84,3.84,0,0,0,1.84,3.47,11.82,11.82,0,0,0,4,1.07c8.82,1.12,17.52,0,25.77-1.76,3.39-.7,6.9-1.59,9-3.69a5,5,0,0,0,.81-1.09c8.85-9,12.08-12.82,17.32-24.72a7.58,7.58,0,0,0,.85-1.89A4.94,4.94,0,0,0,585.42,465.83Z"/><path class="cls-56" d="M572.39,447.68c-1.27,1.66-1.06,7.51-1.08,9.6,0,5.2.59,8.54,3.17,12.08,8.63,11.83,21.11,21,27.18,34.3.72,1.58,1.43,3.31,2.88,4.26a8.1,8.1,0,0,0,4.51.89c4.21,0,8.75-.38,12-3.08,5.49-4.59,4.47-13.17,2.77-20.13q-3.16-13-7.14-25.7c-2.34-7.48-4.31-20.34-9.61-26.25C598,423.56,577.81,440.6,572.39,447.68Z"/><path class="cls-64" d="M677.52,455.07c3.61.82,7.52,1.3,10.9-.19,2.42-1.07,4.32-3,6.65-4.3,2.45,1.62-1.41,5.87-4,7.26a4.12,4.12,0,0,1,3.73.12c-2.56,1.23-5.27,2.49-8.1,2.23-2-.19-3.88-1.15-5.89-1.33-3.1-.28-6,1.31-9.08,1.93a14.87,14.87,0,0,1-9.42-1.21c-4.71-2.31.46-6.08,3.49-6.54C669.53,452.47,674,454.27,677.52,455.07Z"/><path class="cls-56" d="M684.16,456.38c-.18-.62-4.55-1.83-7.46-2.35-5.92-1.07-14.33-4.71-27.39-4.35a10.92,10.92,0,0,0-4.14.95,51.79,51.79,0,0,0-6.17-3.44c-7.54-4.1-14.48-6.85-21.19-11.11-4.38-2.78-15.46-7.72-18.6-4.84-1.61,4.07,4.45,8.39,6.29,12.36q2,4.24,4,8.45a4.94,4.94,0,0,0,1.39,2,7.59,7.59,0,0,0,1.95.7c12.48,4.55,17.4,4.79,30.63,4.6.06,0,.1,0,.16,0,2.33,1.78,5.83,2.29,9.21,2.62,8.38.82,17.16,1.05,25.81-1a11.82,11.82,0,0,0,3.9-1.5C683.65,458.63,684.46,457.41,684.16,456.38Z"/><path class="cls-64" d="M625.53,496.41c-5.41-.27-10.4,2-15.82,2.28-2.74.14-5.86.54-7.45,2.78-1.2,1.69-1.16,3.93-1.06,6,1.07,21.81,5.47,65.71,5.43,65.38-.1-.88-.09.55.14,2.29a31,31,0,0,0-.13,7c.57,9.16,1.82,17.56,3,26.67.49,3.81,2.76,18,4,26a4,4,0,0,1-.1.75,6.34,6.34,0,0,1-2.23,3.18,12.72,12.72,0,0,1-4,2.24,15.87,15.87,0,0,1-3,.82c-1,.17-1.22.47-1,1.46.74,1.17,3.24,1.52,4.79,1.19,1.26-.27,2.67-1.21,3.92-1.52,2.25-.56,4.18.11,5.88-1,1.34-2.2.08-3.48.32-5.4a12.42,12.42,0,0,1,.46-2c4.67-8.69,8.53-38,8.61-43,.12-7.11-.75-14.78-5.23-20.2,2.19-7.79,5.27-19.06,7.16-26.24C633.16,529.85,632.11,509.92,625.53,496.41Z"/><path class="cls-2" d="M607.07,641c.5-.19,1.07-.43,1.63-.71a4.8,4.8,0,0,0,2.14.6,10.73,10.73,0,0,0,7.59-2.93c.21,1.24.58,2.38-.41,4-1.77,1.19-3.79.48-6.13,1.07-1.3.32-2.78,1.3-4.09,1.58-1.61.35-4.22,0-5-1.24-.2-1,0-1.34,1.07-1.52A16.55,16.55,0,0,0,607.07,641Z"/><path class="cls-64" d="M702.37,484.21c-1.28.05-2.84.74-4.12.83-2.31.17-4.1-.82-6,0-1.69,1.95-.67,3.41-1.23,5.27a10,10,0,0,1-.57,1.41l-2,3.86a155.07,155.07,0,0,0-10.7,26.19,62.1,62.1,0,0,0-1.72,9.21c-2.81-4-5.58-7.87-7.75-10.87-9.2-12.76-25.24-24.61-39.86-28.12-3.65,4-5.06,9.31-8.3,13.66-1.64,2.2-3.31,4.86-2.59,7.51.54,2,2.3,3.4,4,4.63,17.36,13,35.39,26.14,53.91,37.37a45.11,45.11,0,0,0,5.81,3,3.62,3.62,0,0,0,2.53,1.26c3,.07,5.78-2.14,7.22-4.83s1.83-5.79,2.16-8.82q1.5-13.69,2.08-27.46c.16-3.84-.24-15.75,0-25.58a4,4,0,0,1,.23-.72,6.34,6.34,0,0,1,2.74-2.75,12.72,12.72,0,0,1,4.3-1.54,15.89,15.89,0,0,1,3.14-.29c1,0,1.28-.26,1.26-1.26C706.35,484.92,703.95,484.14,702.37,484.21Z"/><path class="cls-2" d="M702.73,487.68c-.53.1-1.12.25-1.73.43a4.8,4.8,0,0,0-2-1,10.73,10.73,0,0,0-8,1.6c0-1.26-.17-2.45,1.09-3.89,2-.87,3.81.17,6.22,0,1.34-.1,3-.81,4.29-.87,1.65-.07,4.15.74,4.7,2.07,0,1-.27,1.31-1.31,1.31A16.55,16.55,0,0,0,702.73,487.68Z"/><path class="cls-55" d="M597.11,495.8s11.13-1,16.92-5.88a63.53,63.53,0,0,0,8.68-8.71A27.26,27.26,0,0,0,634,489.9a117.31,117.31,0,0,1,24.73,13.19,109.12,109.12,0,0,1,12.81,10.54s-3.54,17.26-14,24.83c-19.36,14-23.69,2.5-40.09,11a151.15,151.15,0,0,1-18.19,7.77s-1-5.87-1-27S598.88,504.08,597.11,495.8Z"/><path class="cls-65" d="M567.74,396c1.28-3.11,5.82-6.29,9.11-7a13.92,13.92,0,0,1,6-.16,14.67,14.67,0,0,1,7.11,4.31c1.62,1.65,3.18,4.16,5.13,5.39,2.7,1.71,4.07,2.44,6.9,2.38s5.7-.36,8.48.22,5.52,2.26,6.46,4.93c.83,2.34.12,5-1,7.17-.75,1.48-1.72,3.1-1.24,4.69.55,1.83,2.67,2.57,4.27,3.61a9,9,0,0,1,3.81,5.58,6.11,6.11,0,0,1-.12,3.29,8.12,8.12,0,0,1-3.4,3.73c-1.8,1.21-3.91,2.26-6,1.88-3-.53-4.91-3.87-4.77-6.93.06-1.3.4-2.57.43-3.87a4.26,4.26,0,0,0-1.34-3.51,4.39,4.39,0,0,0-3.51-.57c-1.2.23-2.36.69-3.57.84a7.24,7.24,0,0,1-6.31-2.46c-2.57-3-2.18-7.56-3.73-11.22a3.05,3.05,0,0,0-.9-1.31c-1.05-.79-2.53-.2-3.73.36-4.77,2.22-9.14,1.72-13.64-.9C568.67,404.41,566.12,399.91,567.74,396Z"/><path class="cls-64" d="M590.68,436.41c-.53-.73-3-.52-3.57-1.19-1.13-1.23-2.18-2.67-1.85-4.3s1.07-3.16,1.49-4.78c1.16-4.41-.13-9.22-2.74-13a16.45,16.45,0,0,0-10.37-7,11.91,11.91,0,0,0-11.45,4.22c-2.34,3.14-2.68,7.42-1.81,11.23a28.7,28.7,0,0,0,2.4,6.36c0,.34,0,.67.07,1l.28,3.7a.93.93,0,0,0,.14.5.79.79,0,0,0,.45.25,3.65,3.65,0,0,0,1.94-.11l1.42,2.53c.83,1.48,2,3.16,3.7,3.07,3.15-.17,4.45-5,7.61-.84,1.66,2.17,1.17,4,1.56,6.37C580.94,450.37,593.79,440.71,590.68,436.41Z"/><path class="cls-66" d="M560.86,427.25a9.3,9.3,0,0,1-3.53-4.29,12.18,12.18,0,0,1-.51-6.6c.39-3.86,2.37-6.57,5.13-9.29,3.33-3.28,8.94-4.53,13.61-4.27a20.06,20.06,0,0,1,6.5,1.7c3.49,1.52,7.47,5.54,8.19,8.08,1.47,5.16,1.44,8.78-.51,13.6a10.83,10.83,0,0,1-4.47,4.74c-2.07-1.39-2-1.65-4.17-3.23-.62-.46-1.3-.74-1.33-1.51.93-1.43,1.87-.33,2.14-2.84.14-1.24-.18-3.69-1.21-4.75-.88-.89-2.31-1.44-3.13-.5-1.6,1.84-.65,3.85-2,5.89,0-1.8-1.87-3.41-4.25-4.5a8.88,8.88,0,0,0-6.51-.64A16.21,16.21,0,0,1,560.86,427.25Z"/><path class="cls-3" d="M454.91,536.11l2.18.71a.27.27,0,0,0,.25,0l1.82-1.39a.27.27,0,0,1,.43.21v2.29a.27.27,0,0,0,.12.22l1.89,1.3a.27.27,0,0,1-.07.47l-2.18.71a.27.27,0,0,0-.17.18l-.66,2.2a.27.27,0,0,1-.47.08l-1.35-1.86a.27.27,0,0,0-.22-.11l-2.29.05a.27.27,0,0,1-.22-.43l1.35-1.85a.27.27,0,0,0,0-.25l-.76-2.16A.27.27,0,0,1,454.91,536.11Z"/><path class="cls-3" d="M447.1,554.1l2.18.71a.27.27,0,0,0,.25,0l1.82-1.39a.27.27,0,0,1,.43.21v2.29a.27.27,0,0,0,.12.22l1.89,1.3a.27.27,0,0,1-.07.47l-2.18.71a.27.27,0,0,0-.17.18l-.66,2.2a.27.27,0,0,1-.47.08l-1.35-1.86a.27.27,0,0,0-.22-.11l-2.29.06a.27.27,0,0,1-.22-.43l1.35-1.85a.27.27,0,0,0,0-.25l-.76-2.16A.27.27,0,0,1,447.1,554.1Z"/><path class="cls-3" d="M465.28,549.35l1.78-1.44a.27.27,0,0,0,.1-.23l-.18-2.29a.27.27,0,0,1,.41-.25l1.92,1.25a.27.27,0,0,0,.25,0l2.12-.88a.27.27,0,0,1,.36.32l-.59,2.22a.27.27,0,0,0,.06.24l1.49,1.75a.27.27,0,0,1-.19.44l-2.29.12a.27.27,0,0,0-.21.13l-1.2,2a.27.27,0,0,1-.48,0l-.82-2.14a.27.27,0,0,0-.19-.16l-2.23-.54A.27.27,0,0,1,465.28,549.35Z"/><path class="cls-3" d="M476.8,559.26l1.78-1.44a.27.27,0,0,0,.1-.23l-.18-2.29a.27.27,0,0,1,.41-.25l1.92,1.25a.27.27,0,0,0,.25,0l2.12-.88a.27.27,0,0,1,.36.32L483,558a.27.27,0,0,0,.06.24l1.49,1.75a.27.27,0,0,1-.19.44l-2.29.12a.27.27,0,0,0-.21.13l-1.2,2a.27.27,0,0,1-.48,0l-.82-2.14a.27.27,0,0,0-.19-.16l-2.23-.54A.27.27,0,0,1,476.8,559.26Z"/><path class="cls-3" d="M446.15,573.43l1.78-1.44a.27.27,0,0,0,.1-.23l-.18-2.29a.27.27,0,0,1,.41-.25l1.92,1.25a.27.27,0,0,0,.25,0l2.12-.88a.27.27,0,0,1,.36.32l-.59,2.22a.27.27,0,0,0,.06.24l1.49,1.75a.27.27,0,0,1-.19.44l-2.29.12a.27.27,0,0,0-.21.13l-1.2,2a.27.27,0,0,1-.48,0l-.82-2.14a.27.27,0,0,0-.19-.16l-2.23-.54A.27.27,0,0,1,446.15,573.43Z"/><path class="cls-3" d="M462.78,562.36l2.16-.77a.27.27,0,0,0,.17-.18l.59-2.22a.27.27,0,0,1,.47-.1l1.4,1.82a.27.27,0,0,0,.23.1l2.29-.13a.27.27,0,0,1,.24.42l-1.29,1.9a.27.27,0,0,0,0,.25l.83,2.14a.27.27,0,0,1-.32.35l-2.2-.64a.27.27,0,0,0-.24,0l-1.78,1.45a.27.27,0,0,1-.44-.2l-.07-2.29a.27.27,0,0,0-.12-.22l-1.93-1.24A.27.27,0,0,1,462.78,562.36Z"/><ellipse class="cls-51" cx="205.25" cy="627.82" rx="63.86" ry="14.34"/><path class="cls-67" d="M356.7,359a2.73,2.73,0,0,0-3.62,1.33l-6.7,14.48H288.71l6.78-14.67a2.73,2.73,0,1,0-5-2.29l-76,164.31a2.7,2.7,0,0,0-.85,1.84L166.07,627a2.73,2.73,0,1,0,5,2.29l6.71-14.5h57.66l-7.2,15.58a2.73,2.73,0,1,0,5,2.29L358,362.59A2.73,2.73,0,0,0,356.7,359Zm-12.84,21.28-11,23.86H275.15l11-23.86Zm-24.59,53.18H261.6l11-23.86H330.3ZM305.7,462.75H248l11-23.86h57.67Zm-13.56,29.32H234.48l11-23.86h57.67Zm-13.56,29.32H220.92l11-23.86h57.67ZM265,550.72H207.37l11-23.86h57.67ZM251.48,580H193.81l11-23.86h57.67Zm-71.22,29.32,11-23.86H249l-11,23.86Z"/><path class="cls-62" d="M223,324.74a17,17,0,0,0-9.6-4.82A23.87,23.87,0,0,0,192,326.81c-5.46,5.8-7.67,15-4.9,22.48a5.38,5.38,0,0,1,.55,2.63,4,4,0,0,1-.88,1.76c-3.09,4-8.31,5.29-12,8.63A17.43,17.43,0,0,0,169.38,375,21.56,21.56,0,0,0,173.86,388c2.28,3,5.49,6.23,4.59,10a8.27,8.27,0,0,1-2.17,3.6c-2.91,3.12-6.71,5.14-9.83,8s-5.62,7.27-4.54,11.44c.85,3.31,3.75,5.58,6.76,6.88,5.62,2.41,11.94,2.25,18,1.69,8.39-.77,16.88-2.27,24.47-6.19S230,413,232.63,404.58s.43-18.68-6.34-23.85c-2.26-1.72-5.15-3.17-5.81-6-.46-2-.51-7.53,8.52-16.26,1.67-1.62,3-3.91,2.82-6.27-.4-4.44-6.51-6.63-6.39-11.1,0-1.76,1.13-3.3,1.2-5a21.61,21.61,0,0,0-.44-3.18C225.85,329.72,225.15,327.07,223,324.74Z"/><path class="cls-64" d="M278.22,402.42c3.19,1.36,6.72,2.45,10.09,1.64,2.41-.58,4.5-2.08,6.85-2.86,2.28,1.43-2.28,5.18-4.87,6a3.87,3.87,0,0,1,3.43.73c-2.56.71-5.28,1.42-7.85.7-1.82-.51-3.39-1.71-5.21-2.21-2.82-.77-5.79.2-8.71.26a14,14,0,0,1-8.49-2.69c-4-2.92,1.44-5.54,4.31-5.46C271.28,398.68,275.08,401.09,278.22,402.42Z"/><path class="cls-68" d="M277.63,401.32c-5.29-2-12.44-6.74-24.56-8.59a10.6,10.6,0,0,0-2.33-.07,47.36,47.36,0,0,0-4.81-4.66c-5.85-5.53-11.48-9.69-16.54-15.17-3.3-3.57-7-7.36-11.81-8.05-2.44,3.31-1.87,7.86-1.16,11.91q.76,4.31,1.57,8.62a4.63,4.63,0,0,0,.79,2.13,7.12,7.12,0,0,0,1.6,1.1c10.21,7.13,14.26,9.61,26.3,12.62h0c1.89,1.71,4.77,2.65,7.57,3.45,7.6,2.16,15.66,3.84,24,3.38a11.08,11.08,0,0,0,3.85-.73c1.18-.52,2.13-1.52,2-2.52C284.06,404.13,280.23,402.29,277.63,401.32Z"/><path class="cls-64" d="M252,551.84c1.2-.13,2.75.23,3.94.06,1.47-.21,3.55-1.34,3.82-2.61-.15-.93-.45-1.12-1.38-.95a14.91,14.91,0,0,1-2.95.27,11.93,11.93,0,0,1-4.23-.68,6,6,0,0,1-3-2.07c-.82-1.2-.76-3-2-3.78-.7-.42-3.79,1.25-4.35,1.65.35,1.75,1.8,2.91,2.59,4.46s.14,3.15,2,4.65C248.36,553.3,249.84,552.08,252,551.84Z"/><path class="cls-69" d="M255.69,548.64c-.5,0-1.08,0-1.67-.1a4.5,4.5,0,0,1-1.69,1.22,10.06,10.06,0,0,1-7.63-.11,4.58,4.58,0,0,0,1.67,3.4c1.95.47,3.49-.81,5.74-1.05,1.25-.14,2.87.24,4.11.06,1.53-.22,3.7-1.39,4-2.71-.16-1-.47-1.16-1.43-1A15.53,15.53,0,0,1,255.69,548.64Z"/><path class="cls-70" d="M243.53,521.64q-2.9-12.59-6.63-25c-1.43-4.75-3.23-9.35-4.38-14.31-1.39-6-2.91-11.93-4.54-17.85-3.25-11.84-6.89-23.57-10.59-35.28-.59-1.85-.16-3.64-1.08-7.59-.58-2.51-6.8,1.86-9.26,2.63-4.85,1.53-10,1.14-14.66,3.14-1.39,14,4.17,31.9,12.64,44,4,5.7,10.38,14.61,14.84,20.75-2.18,6.23-.45,13.26,2,19.47,1.68,4.31,14.63,28.87,21.56,35l.78.08a11.65,11.65,0,0,0,3.75-1.28C249.25,540.37,244.34,525.17,243.53,521.64Z"/><path class="cls-55" d="M227.35,375.35c-.69-1.83-2.41-7-4.07-8.09-7.07-4.47-30.38-12.89-35.07-1.06-2.74,6.92-.29,18.88.09,26.22q.64,12.5,2.08,24.94c.12,1-2.16,2-2,3,7.8,3.73,19.3,7.36,26.39,2.25a2.29,2.29,0,0,1,.59-.3,4.68,4.68,0,0,1,.92-.7c2.13-11.94,8.85-22.85,12.18-34.64C229.6,383,229.07,379.91,227.35,375.35Z"/><path class="cls-64" d="M135.25,406.6c-2.91,1.89-6.19,3.59-9.65,3.38-2.47-.15-4.79-1.26-7.25-1.62-1.63,2.22,3.15,4.71,5.85,5.1a3.87,3.87,0,0,0-3.25,1.32c2.65.25,5.45.48,7.85-.68,1.7-.82,3-2.27,4.75-3.08,2.64-1.25,5.73-.81,8.62-1.26a14,14,0,0,0,7.89-4.13c3.39-3.57-2.38-5.2-5.2-4.62C141.44,401.71,138.1,404.74,135.25,406.6Z"/><path class="cls-55" d="M193.05,361.3c-4.73,1.14-8.5,5.27-11.45,9.14-4.52,5.93-9.73,10.61-15,16.67a48.56,48.56,0,0,0-4.31,5,10.25,10.25,0,0,0-3.95.52c-11.61,3.94-17.82,9.88-22.68,12.75-2.39,1.41-5.84,3.89-5.79,4.5.07,1,1.18,1.82,2.43,2.12a11.08,11.08,0,0,0,3.92,0c8.28-1,15.93-4.06,23-7.52a27,27,0,0,0,5.33-3.18h0c11.7-4.14,18-8.09,27.51-16.16a7.11,7.11,0,0,0,1.49-1.25,4.63,4.63,0,0,0,.58-2.2q.4-4.36.74-8.73C195.2,369,195.79,364.36,193.05,361.3Z"/><path class="cls-64" d="M126.43,440.06c-1.13.42-2.73.44-3.84.89-1.38.56-3.13,2.15-3.09,3.45.37.87.71,1,1.56.59a14.89,14.89,0,0,1,2.8-1,11.93,11.93,0,0,1,4.27-.35,6,6,0,0,1,3.4,1.29c1.09,1,1.47,2.76,2.86,3.19.78.24,3.38-2.13,3.83-2.65-.76-1.62-2.44-2.4-3.59-3.71s-.89-3-3.09-4C129.62,437.77,128.48,439.31,126.43,440.06Z"/><path class="cls-69" d="M123.62,444.06c.49-.12,1.06-.23,1.64-.31a4.5,4.5,0,0,1,1.35-1.59,10.06,10.06,0,0,1,7.44-1.73,4.58,4.58,0,0,0-2.43-2.9c-2,0-3.19,1.62-5.32,2.4-1.18.43-2.84.45-4,.93-1.43.58-3.26,2.24-3.22,3.59.38.9.74,1,1.63.61A15.53,15.53,0,0,1,123.62,444.06Z"/><path class="cls-71" d="M198.41,421.33c-3.79-1-7.55-4.36-9.67-2.38-11.12,8.66-20.23,25-23.15,39.47-.62,3.08-1.38,7-2.16,11-5.61-6.72-20.32-22.67-27.4-26.37l-.77.11a11.64,11.64,0,0,0-3.33,2.14c-.08,5.21,8.33,18.78,10,22q5.83,11.53,12.42,22.65c1.46,2.46,3,5,5.26,6.7s5.46,2.57,8,1.32,3.72-4.32,5.2-6.67c1.88-3,4.21-5.7,6.13-8.71,2.72-4.28,5.24-8.68,7.85-13,4.34-7.23,7.94-15.34,12.8-22.2,2.76-3.9,6.12-7.33,9.11-11a46.59,46.59,0,0,0,6.72-11.76c.32-.77,1.37-2.6.87-3.38-1.36.55-2.55,1.46-4,1.91a11.35,11.35,0,0,1-4.45.47C204.67,423.31,201.55,422.15,198.41,421.33Z"/><path class="cls-64" d="M228.8,343.82a.79.79,0,0,0-.17-.47l-1.95-3.07a10.33,10.33,0,0,0-1.1-1.53c-.31-1.82-.7-3.64-1.17-5.46-1.07-4.21-2.59-8.51-6.49-10.44-4.26-2.1-9.65-1.24-13.45,1.61a18.27,18.27,0,0,0-6.73,12.15c-.69,5,3.72,4.46,6.28,7.8,2,2.65,2.12,6,1.45,10.37a10.28,10.28,0,0,1-.54,5.27c-.27,1-1.89,1.9-2,2.89-.91,5.82,17,10.29,14.69,2.57-.75-2.52-2.23-4.11-1.68-7.09,1-5.68,4.75-1.59,8-3,1.72-.76,2-3,2.11-4.9l.17-4.49c0-.2,0-.4,0-.6a5.08,5.08,0,0,0,2.41-1.15A.78.78,0,0,0,228.8,343.82Z"/><path class="cls-62" d="M210.38,330.64a21.58,21.58,0,0,0,12.24,2,8.93,8.93,0,0,0,4.31-1.55,4.68,4.68,0,0,0,1.91-4.18,6,6,0,0,0-2.79-3.73A21.31,21.31,0,0,0,213.9,319a18,18,0,0,0-12.09,4.54,20.47,20.47,0,0,0-6,10.76,26.49,26.49,0,0,0,.4,12.48c.87,3.26,2.2,2.42,4.25.6a31.79,31.79,0,0,0,4.42-4.86,33.12,33.12,0,0,0,3.39-5.71C208.47,336.3,210.76,330.82,210.38,330.64Z"/></g></g></svg>